<svg width="24" height="28" viewBox="0 0 24 28" fill="none" xmlns="http://www.w3.org/2000/svg">
<path d="M22.3475 2.90625L6.06625 0.031251C5.54395 -0.0606607 5.00653 0.0586317 4.57217 0.362895C4.13781 0.667158 3.84208 1.13148 3.75 1.65375L0.0312516 22.7788C-0.0142323 23.0375 -0.00827372 23.3028 0.0487868 23.5593C0.105847 23.8158 0.212891 24.0585 0.363801 24.2736C0.514711 24.4887 0.70653 24.672 0.928295 24.8129C1.15006 24.9538 1.39742 25.0497 1.65625 25.095L17.9375 27.97C18.1964 28.0157 18.4617 28.0098 18.7184 27.9529C18.975 27.8959 19.2179 27.7889 19.4331 27.638C19.6484 27.487 19.8318 27.2952 19.9728 27.0733C20.1138 26.8514 20.2097 26.604 20.255 26.345L23.9738 5.22C24.0649 4.69753 23.9447 4.16027 23.6397 3.72637C23.3348 3.29248 22.8699 2.99748 22.3475 2.90625ZM12.9375 14.445C12.8967 14.6763 12.7757 14.8859 12.5959 15.037C12.416 15.1881 12.1887 15.271 11.9538 15.2713C11.8951 15.2712 11.8366 15.2662 11.7788 15.2563L6.59125 14.34C6.34472 14.2794 6.13048 14.1272 5.99198 13.9144C5.85349 13.7017 5.80112 13.4442 5.84548 13.1942C5.88985 12.9442 6.02763 12.7205 6.23089 12.5683C6.43415 12.4162 6.68766 12.3471 6.94 12.375L12.125 13.2863C12.2545 13.3089 12.3782 13.3568 12.4891 13.4274C12.6001 13.4979 12.696 13.5896 12.7715 13.6972C12.8469 13.8048 12.9004 13.9262 12.9289 14.0546C12.9574 14.1829 12.9603 14.3156 12.9375 14.445ZM18.8125 11.4225C18.7717 11.6536 18.651 11.863 18.4713 12.0141C18.2917 12.1651 18.0647 12.2482 17.83 12.2488C17.7709 12.2489 17.7119 12.2434 17.6538 12.2325L7.27875 10.4013C7.01751 10.355 6.78535 10.2069 6.63332 9.98945C6.4813 9.77202 6.42188 9.50311 6.46813 9.24188C6.51437 8.98064 6.6625 8.74847 6.87993 8.59645C7.09735 8.44443 7.36626 8.385 7.6275 8.43125L18.0025 10.2638C18.1321 10.2863 18.256 10.3341 18.367 10.4045C18.4781 10.475 18.5742 10.5667 18.6498 10.6743C18.7254 10.7819 18.779 10.9034 18.8075 11.0318C18.8361 11.1602 18.8391 11.293 18.8163 11.4225H18.8125ZM19.5063 7.4825C19.4654 7.71383 19.3445 7.92342 19.1646 8.07449C18.9847 8.22557 18.7574 8.30851 18.5225 8.30875C18.4639 8.30867 18.4053 8.30365 18.3475 8.29375L7.9725 6.46125C7.8402 6.44178 7.71315 6.39597 7.59886 6.32653C7.48457 6.25709 7.38537 6.16544 7.30713 6.05699C7.22889 5.94854 7.1732 5.8255 7.14334 5.69515C7.11349 5.56479 7.11009 5.42978 7.13333 5.29809C7.15657 5.1664 7.206 5.0407 7.27867 4.92845C7.35135 4.81619 7.4458 4.71965 7.55644 4.64454C7.66708 4.56943 7.79166 4.51728 7.92282 4.49116C8.05397 4.46505 8.18903 4.4655 8.32 4.4925L18.695 6.32375C18.8247 6.34611 18.9487 6.39385 19.0599 6.46424C19.1711 6.53462 19.2674 6.62627 19.3431 6.73392C19.4188 6.84157 19.4725 6.96311 19.5012 7.09157C19.5298 7.22003 19.5328 7.35288 19.51 7.4825H19.5063Z" fill="#1d1f21"/>
</svg>
