<svg width="24" height="27" viewBox="0 0 24 27" fill="none" xmlns="http://www.w3.org/2000/svg">
<path d="M23 4.75H1C0.801088 4.75 0.610322 4.82902 0.46967 4.96967C0.329018 5.11032 0.25 5.30109 0.25 5.5C0.25 5.69891 0.329018 5.88968 0.46967 6.03033C0.610322 6.17098 0.801088 6.25 1 6.25H2.25V24.5C2.25 24.9641 2.43437 25.4092 2.76256 25.7374C3.09075 26.0656 3.53587 26.25 4 26.25H20C20.4641 26.25 20.9092 26.0656 21.2374 25.7374C21.5656 25.4092 21.75 24.9641 21.75 24.5V6.25H23C23.1989 6.25 23.3897 6.17098 23.5303 6.03033C23.671 5.88968 23.75 5.69891 23.75 5.5C23.75 5.30109 23.671 5.11032 23.5303 4.96967C23.3897 4.82902 23.1989 4.75 23 4.75ZM20.25 24.5C20.25 24.5663 20.2237 24.6299 20.1768 24.6768C20.1299 24.7237 20.0663 24.75 20 24.75H4C3.9337 24.75 3.87011 24.7237 3.82322 24.6768C3.77634 24.6299 3.75 24.5663 3.75 24.5V6.25H20.25V24.5ZM6.25 1.5C6.25 1.30109 6.32902 1.11032 6.46967 0.96967C6.61032 0.829018 6.80109 0.75 7 0.75H17C17.1989 0.75 17.3897 0.829018 17.5303 0.96967C17.671 1.11032 17.75 1.30109 17.75 1.5C17.75 1.69891 17.671 1.88968 17.5303 2.03033C17.3897 2.17098 17.1989 2.25 17 2.25H7C6.80109 2.25 6.61032 2.17098 6.46967 2.03033C6.32902 1.88968 6.25 1.69891 6.25 1.5Z" fill="#C41E3A"/>
</svg>
