<svg width="25" height="25" viewBox="0 0 25 25" fill="none" xmlns="http://www.w3.org/2000/svg">
<path d="M24.53 4.47L20.53 0.47C20.3894 0.32955 20.1988 0.25066 20 0.25066C19.8012 0.25066 19.6106 0.32955 19.47 0.47L7.47 12.47C7.32931 12.6105 7.25018 12.8012 7.25 13V17C7.25 17.1989 7.32902 17.3897 7.46967 17.5303C7.61032 17.671 7.80109 17.75 8 17.75H12C12.1988 17.7498 12.3895 17.6707 12.53 17.53L24.53 5.53C24.6705 5.38937 24.7493 5.19875 24.7493 5C24.7493 4.80125 24.6705 4.61063 24.53 4.47ZM11.6888 16.25H8.75V13.3113L17 5.06125L19.9387 8L11.6888 16.25ZM21 6.93875L18.0613 4L20 2.06125L22.9387 5L21 6.93875ZM23.75 13V23C23.75 23.4641 23.5656 23.9092 23.2374 24.2374C22.9092 24.5656 22.4641 24.75 22 24.75H2C1.53587 24.75 1.09075 24.5656 0.762563 24.2374C0.434375 23.9092 0.25 23.4641 0.25 23V3C0.25 2.53587 0.434375 2.09075 0.762563 1.76256C1.09075 1.43437 1.53587 1.25 2 1.25H12C12.1989 1.25 12.3897 1.32902 12.5303 1.46967C12.671 1.61032 12.75 1.80109 12.75 2C12.75 2.19891 12.671 2.38968 12.5303 2.53033C12.3897 2.67098 12.1989 2.75 12 2.75H2C1.9337 2.75 1.87011 2.77634 1.82322 2.82322C1.77634 2.87011 1.75 2.9337 1.75 3V23C1.75 23.0663 1.77634 23.1299 1.82322 23.1768C1.87011 23.2237 1.9337 23.25 2 23.25H22C22.0663 23.25 22.1299 23.2237 22.1768 23.1768C22.2237 23.1299 22.25 23.0663 22.25 23V13C22.25 12.8011 22.329 12.6103 22.4697 12.4697C22.6103 12.329 22.8011 12.25 23 12.25C23.1989 12.25 23.3897 12.329 23.5303 12.4697C23.671 12.6103 23.75 12.8011 23.75 13Z" fill="#FFC300"/>
</svg>
