<svg width="22" height="22" viewBox="0 0 22 22" fill="none" xmlns="http://www.w3.org/2000/svg">
<path d="M21.75 1V7C21.75 7.19891 21.671 7.38968 21.5303 7.53033C21.3897 7.67098 21.1989 7.75 21 7.75C20.8011 7.75 20.6103 7.67098 20.4697 7.53033C20.329 7.38968 20.25 7.19891 20.25 7V2.81L13.53 9.53C13.3878 9.66248 13.1998 9.7346 13.0055 9.73118C12.8112 9.72775 12.6258 9.64903 12.4884 9.51162C12.351 9.37421 12.2723 9.18882 12.2688 8.99452C12.2654 8.80022 12.3375 8.61218 12.47 8.47L19.19 1.75H15C14.8011 1.75 14.6103 1.67098 14.4697 1.53033C14.329 1.38968 14.25 1.19891 14.25 1C14.25 0.801088 14.329 0.610322 14.4697 0.46967C14.6103 0.329018 14.8011 0.25 15 0.25H21C21.1989 0.25 21.3897 0.329018 21.5303 0.46967C21.671 0.610322 21.75 0.801088 21.75 1ZM8.47 12.47L1.75 19.19V15C1.75 14.8011 1.67098 14.6103 1.53033 14.4697C1.38968 14.329 1.19891 14.25 1 14.25C0.801088 14.25 0.610322 14.329 0.46967 14.4697C0.329018 14.6103 0.25 14.8011 0.25 15V21C0.25 21.1989 0.329018 21.3897 0.46967 21.5303C0.610322 21.671 0.801088 21.75 1 21.75H7C7.19891 21.75 7.38968 21.671 7.53033 21.5303C7.67098 21.3897 7.75 21.1989 7.75 21C7.75 20.8011 7.67098 20.6103 7.53033 20.4697C7.38968 20.329 7.19891 20.25 7 20.25H2.81L9.53 13.53C9.66248 13.3878 9.7346 13.1998 9.73118 13.0055C9.72775 12.8112 9.64903 12.6258 9.51162 12.4884C9.37421 12.351 9.18882 12.2723 8.99452 12.2688C8.80022 12.2654 8.61218 12.3375 8.47 12.47Z" fill="#2C2E3A"/>
</svg>
