<svg width="30" height="22" viewBox="0 0 30 22" fill="none" xmlns="http://www.w3.org/2000/svg">
<path d="M29.7075 12.7075L25.7075 16.7075C25.6146 16.8005 25.5043 16.8742 25.3829 16.9246C25.2615 16.9749 25.1314 17.0008 25 17.0008C24.8686 17.0008 24.7385 16.9749 24.6171 16.9246C24.4957 16.8742 24.3854 16.8005 24.2925 16.7075L22.2925 14.7075C22.1049 14.5199 21.9994 14.2654 21.9994 14C21.9994 13.7346 22.1049 13.4801 22.2925 13.2925C22.4801 13.1049 22.7346 12.9994 23 12.9994C23.2654 12.9994 23.5199 13.1049 23.7075 13.2925L25 14.5863L28.2925 11.2925C28.4801 11.1049 28.7346 10.9994 29 10.9994C29.2654 10.9994 29.5199 11.1049 29.7075 11.2925C29.8951 11.4801 30.0006 11.7346 30.0006 12C30.0006 12.2654 29.8951 12.5199 29.7075 12.7075ZM16 15.71C17.5676 14.7336 18.7746 13.2733 19.4383 11.5498C20.1021 9.82642 20.1864 7.93372 19.6787 6.15807C19.1709 4.38243 18.0987 2.82046 16.6242 1.70847C15.1496 0.596493 13.3531 -0.00499725 11.5062 -0.00499725C9.65943 -0.00499725 7.86286 0.596493 6.38834 1.70847C4.91381 2.82046 3.84156 4.38243 3.33381 6.15807C2.82606 7.93372 2.91043 9.82642 3.57417 11.5498C4.2379 13.2733 5.44488 14.7336 7.0125 15.71C4.43125 16.555 2.10875 18.1338 0.241248 20.3563C0.118987 20.5016 0.0406363 20.6787 0.0153617 20.8669C-0.00991282 21.0552 0.0189339 21.2467 0.0985274 21.4191C0.178121 21.5916 0.30517 21.7378 0.464812 21.8406C0.624454 21.9435 0.810088 21.9988 0.999998 22H22C22.1905 22.0002 22.3772 21.9459 22.5379 21.8436C22.6987 21.7413 22.8269 21.5952 22.9074 21.4225C22.9879 21.2498 23.0174 21.0577 22.9924 20.8688C22.9674 20.6799 22.8889 20.5021 22.7662 20.3563C20.8975 18.1338 18.575 16.555 16 15.71Z" fill="#1d1f21"/>
</svg>
