<svg width="28" height="27" viewBox="0 0 28 27" fill="none" xmlns="http://www.w3.org/2000/svg">
<path d="M12.25 8C12.25 7.65388 12.3526 7.31554 12.5449 7.02775C12.7372 6.73997 13.0105 6.51566 13.3303 6.38321C13.6501 6.25076 14.0019 6.2161 14.3414 6.28363C14.6809 6.35115 14.9927 6.51782 15.2374 6.76256C15.4822 7.0073 15.6488 7.31913 15.7164 7.65859C15.7839 7.99806 15.7492 8.34993 15.6168 8.6697C15.4843 8.98947 15.26 9.26278 14.9722 9.45507C14.6845 9.64736 14.3461 9.75 14 9.75C13.5359 9.75 13.0908 9.56563 12.7626 9.23744C12.4344 8.90925 12.25 8.46413 12.25 8ZM6.25 8C6.25 5.94457 7.06652 3.97333 8.51992 2.51992C9.97333 1.06652 11.9446 0.25 14 0.25C16.0554 0.25 18.0267 1.06652 19.4801 2.51992C20.9335 3.97333 21.75 5.94457 21.75 8C21.75 15.3513 14.6738 19.4788 14.375 19.6513C14.261 19.7171 14.1317 19.7517 14 19.7517C13.8683 19.7517 13.739 19.7171 13.625 19.6513C13.3262 19.4788 6.25 15.3513 6.25 8ZM7.75 8C7.75 13.565 12.6013 17.1863 14 18.1138C15.3975 17.1863 20.25 13.5662 20.25 8C20.25 6.3424 19.5915 4.75268 18.4194 3.58058C17.2473 2.40848 15.6576 1.75 14 1.75C12.3424 1.75 10.7527 2.40848 9.58058 3.58058C8.40848 4.75268 7.75 6.3424 7.75 8ZM23.26 16.6887C23.1669 16.6511 23.0672 16.6325 22.9669 16.6341C22.8665 16.6357 22.7674 16.6574 22.6756 16.698C22.5837 16.7386 22.501 16.7972 22.4322 16.8703C22.3635 16.9435 22.3101 17.0297 22.2753 17.1239C22.2404 17.2181 22.2249 17.3183 22.2295 17.4186C22.2341 17.5188 22.2588 17.6172 22.3022 17.7078C22.3455 17.7983 22.4066 17.8793 22.4818 17.9458C22.557 18.0123 22.6448 18.063 22.74 18.095C24.9375 18.9062 26.25 19.9925 26.25 21C26.25 23.01 21.2188 25.25 14 25.25C6.78125 25.25 1.75 23.01 1.75 21C1.75 19.9925 3.0625 18.9062 5.26 18.095C5.35518 18.063 5.44298 18.0123 5.51818 17.9458C5.59339 17.8793 5.65447 17.7983 5.69781 17.7078C5.74115 17.6172 5.76587 17.5188 5.77049 17.4186C5.77512 17.3183 5.75956 17.2181 5.72474 17.1239C5.68992 17.0297 5.63654 16.9435 5.56778 16.8703C5.49901 16.7972 5.41626 16.7386 5.32442 16.698C5.23259 16.6574 5.13354 16.6357 5.03315 16.6341C4.93276 16.6325 4.83307 16.6511 4.74 16.6887C1.845 17.7575 0.25 19.2888 0.25 21C0.25 22.6675 1.7725 24.1725 4.53875 25.235C7.0775 26.2125 10.4375 26.75 14 26.75C17.5625 26.75 20.9225 26.2125 23.4613 25.235C26.2275 24.1725 27.75 22.6675 27.75 21C27.75 19.2888 26.155 17.7575 23.26 16.6887Z" fill="black"/>
</svg>
