<svg width="30" height="21" viewBox="0 0 30 21" fill="none" xmlns="http://www.w3.org/2000/svg">
<path d="M29.3975 2.215C29.2896 2.14767 29.1663 2.1089 29.0392 2.10234C28.9122 2.09578 28.7855 2.12164 28.6712 2.1775C23.2137 4.8425 19.335 3.60125 15.2288 2.2875C11.02 0.94125 6.66875 -0.45 0.67125 2.48C0.54498 2.54158 0.438544 2.63739 0.364067 2.7565C0.289591 2.87562 0.250067 3.01327 0.25 3.15375V18.1537C0.250061 18.2809 0.282464 18.406 0.344162 18.5172C0.40586 18.6284 0.494828 18.7221 0.6027 18.7895C0.710572 18.8569 0.833805 18.8957 0.960814 18.9024C1.08782 18.909 1.21444 18.8832 1.32875 18.8275C6.78625 16.1625 10.665 17.4038 14.7712 18.7175C17.1462 19.4788 19.5787 20.255 22.3237 20.255C24.43 20.255 26.725 19.7975 29.3237 18.525C29.45 18.4634 29.5565 18.3676 29.6309 18.2485C29.7054 18.1294 29.7449 17.9917 29.745 17.8512V2.85125C29.7456 2.72447 29.714 2.59962 29.6532 2.48835C29.5925 2.37708 29.5045 2.28304 29.3975 2.215ZM28.25 17.375C23.0125 19.7762 19.2288 18.5662 15.2288 17.2862C12.8475 16.5225 10.4213 15.75 7.67625 15.75C5.865 15.75 3.91625 16.0875 1.75 16.99V3.625C6.9875 1.22375 10.7712 2.43375 14.7712 3.71375C18.7225 4.98 22.8012 6.285 28.25 4.01375V17.375ZM15 6.75C14.2583 6.75 13.5333 6.96993 12.9166 7.38199C12.2999 7.79404 11.8193 8.37971 11.5355 9.06494C11.2516 9.75016 11.1774 10.5042 11.3221 11.2316C11.4667 11.959 11.8239 12.6272 12.3483 13.1517C12.8728 13.6761 13.541 14.0332 14.2684 14.1779C14.9958 14.3226 15.7498 14.2484 16.4351 13.9645C17.1203 13.6807 17.706 13.2001 18.118 12.5834C18.5301 11.9667 18.75 11.2417 18.75 10.5C18.75 9.50544 18.3549 8.55161 17.6517 7.84835C16.9484 7.14509 15.9946 6.75 15 6.75ZM15 12.75C14.555 12.75 14.12 12.618 13.75 12.3708C13.38 12.1236 13.0916 11.7722 12.9213 11.361C12.751 10.9499 12.7064 10.4975 12.7932 10.061C12.88 9.62459 13.0943 9.22368 13.409 8.90901C13.7237 8.59434 14.1246 8.38005 14.561 8.29323C14.9975 8.20642 15.4499 8.25097 15.861 8.42127C16.2722 8.59157 16.6236 8.87996 16.8708 9.24997C17.118 9.61998 17.25 10.055 17.25 10.5C17.25 11.0967 17.0129 11.669 16.591 12.091C16.169 12.5129 15.5967 12.75 15 12.75ZM5.75 6.5V12.5C5.75 12.6989 5.67098 12.8897 5.53033 13.0303C5.38968 13.171 5.19891 13.25 5 13.25C4.80109 13.25 4.61032 13.171 4.46967 13.0303C4.32902 12.8897 4.25 12.6989 4.25 12.5V6.5C4.25 6.30109 4.32902 6.11032 4.46967 5.96967C4.61032 5.82902 4.80109 5.75 5 5.75C5.19891 5.75 5.38968 5.82902 5.53033 5.96967C5.67098 6.11032 5.75 6.30109 5.75 6.5ZM24.25 14.5V8.5C24.25 8.30109 24.329 8.11032 24.4697 7.96967C24.6103 7.82902 24.8011 7.75 25 7.75C25.1989 7.75 25.3897 7.82902 25.5303 7.96967C25.671 8.11032 25.75 8.30109 25.75 8.5V14.5C25.75 14.6989 25.671 14.8897 25.5303 15.0303C25.3897 15.171 25.1989 15.25 25 15.25C24.8011 15.25 24.6103 15.171 24.4697 15.0303C24.329 14.8897 24.25 14.6989 24.25 14.5Z" fill="black"/>
</svg>
