<svg width="18" height="25" viewBox="0 0 18 25" fill="none" xmlns="http://www.w3.org/2000/svg">
<path d="M16 0.25H2C1.53587 0.25 1.09075 0.434375 0.762563 0.762563C0.434375 1.09075 0.25 1.53587 0.25 2V24C0.249955 24.1339 0.285758 24.2654 0.353691 24.3808C0.421624 24.4961 0.51921 24.5912 0.636314 24.6562C0.753418 24.7211 0.88577 24.7535 1.01962 24.75C1.15348 24.7465 1.28395 24.7072 1.3975 24.6362L8.99875 19.8862L16.6025 24.6362C16.716 24.7072 16.8465 24.7465 16.9804 24.75C17.1142 24.7535 17.2466 24.7211 17.3637 24.6562C17.4808 24.5912 17.5784 24.4961 17.6463 24.3808C17.7142 24.2654 17.75 24.1339 17.75 24V2C17.75 1.53587 17.5656 1.09075 17.2374 0.762563C16.9092 0.434375 16.4641 0.25 16 0.25ZM16.25 22.6462L9.39625 18.3638C9.27705 18.2893 9.13931 18.2497 8.99875 18.2497C8.85818 18.2497 8.72045 18.2893 8.60125 18.3638L1.75 22.6462V2C1.75 1.9337 1.77634 1.87011 1.82322 1.82322C1.87011 1.77634 1.9337 1.75 2 1.75H16C16.0663 1.75 16.1299 1.77634 16.1768 1.82322C16.2237 1.87011 16.25 1.9337 16.25 2V22.6462Z" fill="#2C2E3A"/>
</svg>
