<svg width="32" height="32" viewBox="0 0 32 32" fill="none" xmlns="http://www.w3.org/2000/svg">
<path d="M30.8325 16.555L25.125 25.11C24.9427 25.3833 24.6959 25.6074 24.4063 25.7626C24.1168 25.9179 23.7935 25.9994 23.465 26H4C3.81891 26.0001 3.6412 25.9511 3.48581 25.8581C3.33043 25.7651 3.20321 25.6316 3.11774 25.472C3.03227 25.3123 2.99176 25.1325 3.00052 24.9516C3.00928 24.7707 3.067 24.5956 3.1675 24.445L8.79875 16L3.17375 7.555C3.07354 7.4048 3.01586 7.23028 3.00684 7.04995C2.99782 6.86962 3.03779 6.69021 3.12251 6.53076C3.20723 6.37131 3.33354 6.23778 3.48804 6.14433C3.64253 6.05088 3.81945 6.00101 4 6H23.465C23.7935 6.00061 24.1168 6.08213 24.4063 6.23735C24.6959 6.39258 24.9427 6.61673 25.125 6.89L30.8288 15.445C30.9389 15.609 30.9981 15.8019 30.9988 15.9994C30.9994 16.197 30.9416 16.3903 30.8325 16.555Z" fill="#1d1f21"/>
</svg>
