<svg width="22" height="27" viewBox="0 0 22 27" fill="none" xmlns="http://www.w3.org/2000/svg">
<path d="M20 2H15.4675C14.9056 1.37091 14.2172 0.867573 13.4473 0.52295C12.6775 0.178326 11.8435 0.000183105 11 0.000183105C10.1565 0.000183105 9.32254 0.178326 8.55266 0.52295C7.78279 0.867573 7.09438 1.37091 6.5325 2H2C1.46957 2 0.960859 2.21072 0.585786 2.58579C0.210714 2.96086 0 3.46957 0 4V25C0 25.5304 0.210714 26.0391 0.585786 26.4142C0.960859 26.7893 1.46957 27 2 27H20C20.5304 27 21.0391 26.7893 21.4142 26.4142C21.7893 26.0391 22 25.5304 22 25V4C22 3.46957 21.7893 2.96086 21.4142 2.58579C21.0391 2.21072 20.5304 2 20 2ZM11 2C12.0609 2 13.0783 2.42143 13.8284 3.17157C14.5786 3.92172 15 4.93914 15 6H7C7 4.93914 7.42143 3.92172 8.17157 3.17157C8.92172 2.42143 9.93913 2 11 2ZM15 18H7C6.73478 18 6.48043 17.8946 6.29289 17.7071C6.10536 17.5196 6 17.2652 6 17C6 16.7348 6.10536 16.4804 6.29289 16.2929C6.48043 16.1054 6.73478 16 7 16H15C15.2652 16 15.5196 16.1054 15.7071 16.2929C15.8946 16.4804 16 16.7348 16 17C16 17.2652 15.8946 17.5196 15.7071 17.7071C15.5196 17.8946 15.2652 18 15 18ZM15 14H7C6.73478 14 6.48043 13.8946 6.29289 13.7071C6.10536 13.5196 6 13.2652 6 13C6 12.7348 6.10536 12.4804 6.29289 12.2929C6.48043 12.1054 6.73478 12 7 12H15C15.2652 12 15.5196 12.1054 15.7071 12.2929C15.8946 12.4804 16 12.7348 16 13C16 13.2652 15.8946 13.5196 15.7071 13.7071C15.5196 13.8946 15.2652 14 15 14Z" fill="#1d1f21"/>
</svg>
