<svg width="32" height="32" viewBox="0 0 32 32" fill="none" xmlns="http://www.w3.org/2000/svg">
<path d="M28.8663 27.5C28.7785 27.6521 28.6522 27.7783 28.5001 27.8661C28.3481 27.9539 28.1756 28.0001 28 28H4C3.82455 27.9998 3.65224 27.9535 3.50036 27.8657C3.34848 27.7778 3.22239 27.6516 3.13474 27.4996C3.0471 27.3476 3.00098 27.1752 3.00103 26.9998C3.00107 26.8243 3.04728 26.652 3.135 26.5C5.03875 23.2088 7.9725 20.8488 11.3963 19.73C9.70271 18.7218 8.38693 17.1856 7.65098 15.3573C6.91504 13.5289 6.79961 11.5095 7.32243 9.60921C7.84524 7.7089 8.9774 6.03275 10.545 4.83817C12.1127 3.64358 14.0291 2.99661 16 2.99661C17.9709 2.99661 19.8873 3.64358 21.455 4.83817C23.0226 6.03275 24.1548 7.7089 24.6776 9.60921C25.2004 11.5095 25.085 13.5289 24.349 15.3573C23.6131 17.1856 22.2973 18.7218 20.6038 19.73C24.0275 20.8488 26.9613 23.2088 28.865 26.5C28.953 26.6519 28.9994 26.8243 28.9996 26.9998C28.9998 27.1754 28.9538 27.3479 28.8663 27.5Z" fill="#1d1f21"/>
</svg>
