<svg xmlns="http://www.w3.org/2000/svg" fill="none" viewBox="0 0 154 154" id="Hidden-Files--Streamline-Milano" height="154" width="154"><desc>Hidden Files Streamline Illustration: https://streamlinehq.com</desc><g id="hidden-files--interface-hidden-files"><g id="hidden file"><path id="vector" fill="#000000" d="M23.997281 77.40502c-0.44737 0 -0.5320699999999999 -0.641179 -0.09933 -0.756679 0.6206200000000001 -0.16632 1.24278 -0.32956 1.8649400000000003 -0.49049000000000004 0.20636000000000002 -0.052360000000000004 0.41657000000000005 0.07084 0.46893 0.27643 0.053130000000000004 0.20559000000000002 -0.07007 0.41580000000000006 -0.27566 0.46893 -1.8687900000000002 0.48332900000000006 -1.84107 0.501809 -1.9588800000000002 0.501809Z" stroke-width="1"></path><path id="vector_2" fill="#000000" d="M48.195224 71.43374700000001c-1.2574100000000001 0.20482 -2.51328 0.41965 -3.76761 0.64372 -0.45969 0.08162 -0.40040000000000003 0.76384 0.06699 0.76384 0.10549000000000001 0 0.89551 -0.17017000000000002 3.8238200000000004 -0.64834 0.5005000000000001 -0.08162 0.38192 -0.83853 -0.12397000000000001 -0.75999l0.0007700000000000001 0.0007700000000000001Z" stroke-width="1"></path><path id="vector_3" fill="#000000" d="M33.19008 74.353741c-1.24201 0.28105 -2.4824800000000002 0.57211 -3.72141 0.87318 -0.44044 0.10703000000000001 -0.3619 0.75922 0.09086 0.75922 0.13937 0 0.23716 -0.07315 3.80072 -0.88165 0.20790000000000003 -0.04697 0.33726 -0.25333 0.29029 -0.46046 -0.04697 -0.20790000000000003 -0.25333 -0.33726 -0.46046 -0.29029Z" stroke-width="1"></path><path id="vector_4" fill="#000000" d="M40.670014 72.77901399999999c-1.25048 0.24332 -2.49942 0.49665000000000004 -3.7460500000000003 0.75845 -0.45044999999999996 0.09471 -0.38115 0.76153 0.07930999999999999 0.76153 0.13552 0 0.43350999999999995 -0.10703000000000001 3.81458 -0.76461 0.20867000000000002 -0.04081 0.34496 -0.24255000000000002 0.30415000000000003 -0.45122 -0.04081 -0.20867000000000002 -0.24409 -0.34496 -0.45199 -0.30415000000000003Z" stroke-width="1"></path><path id="vector_5" fill="#000000" d="M58.119754 108.25276c-1.05952 0.24717 -2.11673 0.50512 -3.1708600000000002 0.7761600000000001 -0.43582 0.11165 -0.35497 0.75768 0.09548 0.75768 0.15631 0 0.55748 -0.15939 3.28251 -0.79233 -0.06853 -0.24717 -0.1386 -0.49434 -0.20713 -0.74151Z" stroke-width="1"></path><path id="vector_6" fill="#000000" d="M51.368163 109.9945c-1.1888800000000002 0.33726 -2.3739100000000004 0.68838 -3.5558600000000005 1.0549000000000002 -0.41965 0.13013000000000002 -0.32494 0.75306 0.11395999999999999 0.75306 0.17171 0 0.33803 -0.12859 3.6513400000000003 -1.06722 0.20482 -0.057749999999999996 0.3234 -0.27104 0.26565 -0.47509 -0.05852 -0.20482 -0.27335 -0.3234 -0.47509 -0.26565Z" stroke-width="1"></path><path id="vector_7" fill="#000000" d="M42.587314 113.57269000000001c-0.17402 0 -0.32648 -0.11704 -0.37191 -0.28567 -0.16478 -0.6175400000000001 -0.33726 -1.23277 -0.5151300000000001 -1.8464600000000002 -0.05929 -0.20405 0.057749999999999996 -0.41734000000000004 0.26180000000000003 -0.4774 0.20713 -0.05929 0.41734000000000004 0.05852 0.4774 0.26257 0.14168 0.48587 0.27874 0.97251 0.41195000000000004 1.46069 0.47663 -0.16709000000000002 0.9548 -0.3311 1.43297 -0.4928 0.20174 -0.06853 0.41965 0.04004 0.48818 0.24178 0.06776 0.20097 -0.04004 0.41965 -0.24101 0.48818 -1.3613600000000001 0.45969 -1.7902500000000001 0.64911 -1.9427100000000002 0.64911h-0.0015400000000000001Z" stroke-width="1"></path><path id="vector_8" fill="#000000" d="M40.834563 107.80077c-0.44967999999999997 0 -0.22869 -0.15861999999999998 -1.76638 -4.1041 -0.07700000000000001 -0.19789 0.02079 -0.42119000000000006 0.21867999999999999 -0.49819 0.19635 -0.07700000000000001 0.42119000000000006 0.02079 0.49819 0.21867999999999999 0.49896 1.2797399999999999 0.97482 2.5833500000000003 1.41372 3.8746400000000003 0.0847 0.24948 -0.10164000000000001 0.50897 -0.36497999999999997 0.50897h0.0007700000000000001Zm-2.98452 -7.65149c-0.42119000000000006 0 -0.20790000000000003 -0.14014 -2.0874699999999997 -3.93316 -0.09471 -0.19019 -0.01617 -0.42119000000000006 0.17402 -0.5159s0.42196000000000006 -0.01694 0.5159 0.17402c0.60984 1.22892 1.19812 2.48556 1.75021 3.7344999999999997 0.11319 0.25641 -0.07700000000000001 0.54054 -0.35189000000000004 0.54054h-0.0007700000000000001Zm-3.6482600000000005 -7.3581199999999995c-0.39193 0 -0.17864000000000002 -0.11087999999999999 -2.3923900000000002 -3.7360400000000005 -0.11087999999999999 -0.18172 -0.053130000000000004 -0.41811000000000004 0.12782000000000002 -0.5289900000000001 0.18172 -0.11011 0.41811000000000004 -0.0539 0.52976 0.12782000000000002 0.7130200000000001 1.1680899999999999 1.4106400000000001 2.36775 2.0713 3.5658700000000003 0.14245 0.25795 -0.0462 0.57134 -0.33649 0.57134Zm-4.2812 -7.00854c-0.37422 0 -0.17094 -0.12166 -2.67883 -3.5119700000000003 -0.12705 -0.17094 -0.09086 -0.41195000000000004 0.08008 -0.53823 0.17094 -0.12705 0.41195000000000004 -0.09009 0.53823 0.08008 0.81389 1.10033 1.61469 2.23377 2.37853 3.3695200000000005 0.17325000000000002 0.25718 -0.013859999999999999 0.5998300000000001 -0.31878 0.5998300000000001l0.0007700000000000001 0.0007700000000000001Z" stroke-width="1"></path><path id="vector_9" fill="#000000" d="M25.0327 79.17756c-0.26796 0 -0.18095 -0.03542 -1.52306 -1.6185399999999999 -0.13783 -0.1617 -0.11781 -0.40502000000000005 0.044660000000000005 -0.5428499999999999 0.1617 -0.137137 0.40502000000000005 -0.11788700000000002 0.5428499999999999 0.044660000000000005 0.41734000000000004 0.49203 0.82852 0.98791 1.23431 1.48841 0.20559000000000002 0.25333 0.02079 0.62832 -0.29876 0.62832Z" stroke-width="1"></path><path id="vector_10" fill="#000000" d="M36.775045999999996 80.55123999999999c-0.6237 0.15939 -1.2458600000000002 0.32109 -1.8672499999999999 0.48741 -0.15169000000000002 0.04081 -0.23947000000000002 0.14553 -0.27104 0.26565 -0.00231 0.00231 -0.00539 0.00385 -0.0077 0.0061600000000000005 -0.16247 0.13783 -0.18248999999999999 0.38038 -0.044660000000000005 0.5428499999999999 1.32902 1.56772 1.2358500000000001 1.6247 1.51536 1.6247 0.31723999999999997 0 0.50358 -0.3696 0.30107 -0.6244700000000001 -0.31108 -0.39193 -0.6275499999999999 -0.78001 -0.9478700000000001 -1.16424 0.35035 -0.09009 0.88088 -0.23023 1.51228 -0.39193 0.20636000000000002 -0.052360000000000004 0.33033 -0.26180000000000003 0.27797 -0.46816 -0.052360000000000004 -0.20636000000000002 -0.26257 -0.33187 -0.46816 -0.27797Z" stroke-width="1"></path><path id="vector_11" fill="#000000" d="M45.044153 79.05898c-0.04235 -0.20867000000000002 -0.24717 -0.34188 -0.4543 -0.3003 -1.30977 0.26719 -2.61569 0.55055 -3.9185300000000005 0.84931 -0.44428999999999996 0.10164000000000001 -0.37037 0.75999 0.08547 0.75999 0.14861000000000002 0 0.84931 -0.21406000000000003 3.98706 -0.8547000000000001 0.20867000000000002 -0.04235 0.34265 -0.24563000000000001 0.3003 -0.4543Z" stroke-width="1"></path><path id="vector_12" fill="#000000" d="M55.870507 102.50779000000001c-1.1896499999999999 0.29722000000000004 -2.39008 0.6206200000000001 -3.56741 0.9617300000000001 -0.42581 0.12397000000000001 -0.33649 0.7546 0.10703000000000001 0.7546 0.14553 0 1.03565 -0.31801 3.6467199999999997 -0.9694299999999999 0.20636000000000002 -0.051590000000000004 0.33187 -0.26026000000000005 0.28028 -0.46662 -0.051590000000000004 -0.20713 -0.26180000000000003 -0.33264 -0.46662 -0.28028Z" stroke-width="1"></path><path id="vector_13" fill="#000000" d="M49.069867 104.47283c-0.48048 0.15939 -0.9601900000000001 0.32186 -1.43759 0.48818 -0.13474999999999998 -0.48972000000000004 -0.27566 -0.9771299999999999 -0.42273000000000005 -1.4629999999999999 -0.0616 -0.20328000000000002 -0.27643 -0.31878 -0.47971 -0.25641 -0.20405 0.0616 -0.31878 0.27643 -0.25718 0.48048 0.1848 0.60984 0.35959 1.22353 0.52437 1.8395299999999999 0.04543 0.16863 0.19789 0.28567 0.37191 0.28567 0.13629 0 0.07238 -0.0231 1.9427100000000002 -0.64218 0.20174 -0.06699 0.31108 -0.2849 0.24409 -0.48664 -0.06699 -0.20174 -0.2849 -0.31185 -0.48664 -0.24409l0.0007700000000000001 -0.0015400000000000001Z" stroke-width="1"></path><path id="vector_14" fill="#000000" d="M38.412220000000005 85.53237c-0.12243000000000001 -0.17325000000000002 -0.36421 -0.21406000000000003 -0.53669 -0.09086 -0.17402 0.1232 -0.21406000000000003 0.36344 -0.09163 0.53669 1.9619600000000001 2.76507 1.79256 2.92754 2.16524 2.92754 0.29953 0 0.48818 -0.33264 0.32494 -0.5905900000000001 -0.5944400000000001 -0.9432500000000001 -1.2212200000000002 -1.8788 -1.86186 -2.78278Z" stroke-width="1"></path><path id="vector_15" fill="#000000" d="M41.98425 91.19341000000001c-0.10318000000000001 -0.18556999999999998 -0.33803 -0.25179 -0.5236000000000001 -0.14861000000000002 -0.18556999999999998 0.10395000000000001 -0.25256 0.33803 -0.14861000000000002 0.5236000000000001 1.6555 2.9675800000000003 1.47455 3.14545 1.87957 3.14545 0.28182 0 0.47124 -0.29722000000000004 0.34573000000000004 -0.5544 -0.48818 -0.99561 -1.01024 -1.99353 -1.5530899999999999 -2.96604Z" stroke-width="1"></path><path id="vector_16" fill="#000000" d="M44.928807 97.20479999999999c-0.08316 -0.19558 -0.31108 -0.28644000000000003 -0.50512 -0.20405 -0.19558 0.08316 -0.28721 0.30877000000000004 -0.20405 0.50512 1.33441 3.14083 1.1372900000000001 3.3302500000000004 1.5723399999999998 3.3302500000000004 0.26565 0 0.45276 -0.26488 0.3619 -0.5159 -0.37807 -1.04258 -0.7900200000000001 -2.09055 -1.22507 -3.1154200000000003Z" stroke-width="1"></path><path id="vector_17" fill="#000000" d="M53.02297000000001 90.09924000000001c-1.34981 0.40040000000000003 -2.2676499999999997 1.3367200000000001 -3.23015 2.36082 -0.23177 0.24717 -0.053130000000000004 0.64834 0.28028 0.64834 0.10241 0 0.20474300000000004 -0.04081 0.280203 -0.12089 0.85855 -0.9139900000000001 1.70324 -1.79718 2.88827 -2.1498399999999998 0.48664 -0.14476 0.27188700000000005 -0.88242 -0.21937299999999998 -0.73766l0.0007700000000000001 -0.0007700000000000001Z" stroke-width="1"></path><path id="vector_18" fill="#000000" d="M47.701346 95.24900000000001c-0.15477000000000002 -0.14553 -0.39886000000000005 -0.1386 -0.5443899999999999 0.01694l-2.41087 2.5664100000000003 0.3234 0.76692c0.25564000000000003 -0.23023 0.85162 -0.89551 2.6488 -2.80665 0.14553 -0.15477000000000002 0.13783 -0.39809 -0.01694 -0.54362Z" stroke-width="1"></path><path id="vector_19" fill="#000000" d="M46.033526 89.80664c-0.07623 0 -0.32648 -0.04312 -0.56595 -0.13244 -1.26434 -0.46893 -2.0381899999999997 -1.87957 -1.78332 -3.17779 0.09779 -0.49973 0.85393 -0.35189000000000004 0.75537 0.14784 -0.20867000000000002 1.0703 0.57904 2.24917 1.6454900000000001 2.39624 0.47201 0.06545000000000001 0.42504000000000003 0.76615 -0.051590000000000004 0.76615Zm2.8574699999999997 -2.06206c-0.24409 0 -0.42504000000000003 -0.2233 -0.37807 -0.46046 0.21637000000000003 -1.07646 -0.6683600000000001 -2.20759 -1.70478 -2.34465 -0.21098000000000003 -0.027719999999999998 -0.35882000000000003 -0.22099 -0.3311 -0.4319700000000001 0.1386 -1.0472000000000001 3.2778899999999997 0.49588000000000004 2.7912500000000002 2.92831 -0.03696 0.18326 -0.19712000000000002 0.30877000000000004 -0.3773 0.30877000000000004Z" stroke-width="1"></path><path id="vector_20" fill="#000000" d="M50.638203000000004 77.64063999999999c-0.70455 0.11704 -1.4075600000000001 0.23793 -2.11057 0.36344 -0.45969 0.08162 -0.40040000000000003 0.76384 0.06699 0.76384 0.10241 0 0.6160000000000001 -0.11241999999999999 2.1868 -0.37191 -0.04774 -0.25179 -0.09625 -0.50358 -0.14322000000000001 -0.75537Z" stroke-width="1"></path></g><g id="file"><path id="vector_21" fill="#000000" d="M91.38206 57.42744700000001c0.21175000000000002 -0.21713999999999997 0.42735000000000006 -0.42658000000000007 0.6468 -0.6275499999999999 -0.07930999999999999 -0.34342 -0.16093 -0.68684 -0.24409 -1.02872 -0.75922 -3.12543 -1.47147 -5.50319 -2.29768 -7.66843 1.43759 -1.75483 1.6593499999999999 -2.25533 3.2909800000000002 -4.0902400000000005 10.1255 -0.86471 20.405 -1.3475000000000001 30.558220000000002 -1.43451 1.23046 0.8654800000000001 2.29306 1.63625 3.3402600000000002 2.5148200000000003 1.8118100000000001 5.351500000000001 2.61569 10.95787 2.8366800000000003 16.43026 0.25564000000000003 -0.03157 0.5112800000000001 -0.06237 0.76692 -0.09317 -0.22791999999999998 -5.5517 -1.05336 -11.24585 -2.90906 -16.687440000000002 -0.12012 -0.35189000000000004 -3.4288100000000004 -2.6780600000000003 -3.6906100000000004 -2.8644000000000003 -0.06622 -0.04697 -0.18172 -0.07546 -0.22561 -0.07084 -10.264100000000001 0.0847 -20.6591 0.5728800000000001 -30.895480000000003 1.45068 -0.09779 0.00847 -0.18865 0.0539 -0.2541 0.12705 -1.82028 2.03511 -1.9203800000000002 2.4208800000000004 -3.5558600000000005 4.40055 -0.37037 0.44891 0.43505 0.55209 2.28613 8.16662 0.11935 0.49126000000000003 0.23485 0.9825200000000001 0.34650000000000003 1.47532Z" stroke-width="1"></path><path id="vector_22" fill="#000000" d="M102.41154000000002 54.803903000000005c-0.21252000000000001 -0.0015400000000000001 -0.38346 -0.17556000000000002 -0.38192 -0.38808000000000004 0.00231 -0.21252000000000001 0.18018 -0.38115 0.38808000000000004 -0.38192 5.89435 0.052360000000000004 11.86108 -0.16632 17.73464 -0.64449 0.21252000000000001 -0.01617 0.39809 0.14014 0.41503 0.35266000000000003 0.01694 0.21175000000000002 -0.14091 0.39732 -0.35266000000000003 0.41503 -5.89435 0.48048 -11.88957 0.6983900000000001 -17.803169999999998 0.6468Z" stroke-width="1"></path><path id="vector_23" fill="#000000" d="m103.0953 60.885594 19.42094 -0.89397c0.21252000000000001 -0.01001 0.37653 -0.18942 0.36729 -0.40194 -0.01001 -0.21175000000000002 -0.19558 -0.37113999999999997 -0.40194 -0.36729l-19.30852 0.8893500000000001c-0.01771 0.25872 -0.04312 0.5166700000000001 -0.07700000000000001 0.7738499999999999h-0.0007700000000000001Z" stroke-width="1"></path><path id="vector_24" fill="#000000" d="M133.89915000000002 36.568224c-0.23023 -0.68376 -4.29275 -4.266570000000001 -6.01909 -4.79556 -0.12705 -0.03927 -5.9598 -0.0462 -15.05196 0.25949 -0.43966999999999995 -0.69762 -0.88781 -1.38908 -1.3467300000000002 -2.07438 -1.3829200000000001 -2.06591 -2.28536 -2.27073 -4.15415 -1.91884 -8.23669 1.5530899999999999 -16.42718 3.4673100000000003 -24.52296 5.72803 -2.6873 0.22407 -5.42157 0.47124 -8.182096999999999 0.74536 -0.27258 0.02695 -0.43043000000000003 0.32109 -0.30184 0.56364 0.18248999999999999 0.34342 0.35959 0.68761 0.53284 1.03257 -6.383299999999999 1.97736 -12.69576 4.17032 -18.91197 6.5734900000000005 -0.10395000000000001 0.04004 -0.18556999999999998 0.1232 -0.2233 0.22791999999999998 -0.11087999999999999 0.30569 2.16062 3.94394 5.03503 10.3026 -3.89312 1.76407 -7.74543 3.6113000000000004 -11.549230000000001 5.54092 -0.09933 0.050050000000000004 -0.17248 0.14168 -0.19943000000000002 0.24948 -0.18556999999999998 0.74151 14.536830000000002 18.444426 20.46275 47.537336 0.15861999999999998 -0.48048 0.31878 -0.9601900000000001 0.47971 -1.4399000000000002 -3.48964 -16.19002 -10.29875 -31.848586 -20.00075 -45.860276 3.6652 -1.85185 7.37429 -3.6267 11.12188 -5.3253200000000005 0.7877099999999999 1.771 1.61546 3.7391199999999998 2.4462900000000003 5.89281 -1.46762 0.7053200000000001 -2.9267700000000003 1.42527 -4.37745 2.16062 -0.20867000000000002 0.10626000000000001 -0.27488999999999997 0.37113999999999997 -0.14168 0.56364 4.42673 6.347110000000001 8.15892 13.27172 11.03718 20.572706 0.91476 5.14206 1.56387 10.68837 1.79256 16.585030000000003 0.22483999999999998 -0.62832 0.45276 -1.25587 0.68222 -1.88265 -1.02641 -18.80263 -6.47339 -37.561986 -15.87586 -54.566666 6.10456 -2.3485 12.30075 -4.49449 18.56547 -6.43258 0.9239999999999999 1.9180700000000002 1.7086299999999999 3.85462 2.391697 5.78732 -4.0726070000000005 1.31516 -8.105097 2.74274 -12.087537000000001 4.28197 -0.2156 0.08239 -0.31262 0.33957 -0.19712000000000002 0.5467 6.619689999999999 11.876479999999999 10.73072 24.87254 12.066747 38.004736 0.20328000000000002 -0.48433000000000004 0.4081 -0.9686600000000001 0.61446 -1.45222 -0.6545 -5.60329 -1.809577 -11.174856 -3.442747 -16.641085999999998 1.40217 -1.7771599999999999 2.01278 -3.9608800000000004 2.950717 -5.88511 0.4081 -0.8393 1.81566 -3.38261 4.05867 -3.91545 0.8993599999999999 4.42981 1.5800400000000001 8.88349 2.0404999999999998 13.35103 0.20482 -0.48125 0.41118000000000005 -0.9617300000000001 0.6190800000000001 -1.43913 -0.65681 -5.8058000000000005 -1.68322 -11.58619 -3.07692 -17.31961 -1.32748 -5.45622 -2.95757 -11.27049 -5.868247 -16.90612 16.776067 -1.64934 33.823097 -2.52945 52.078257 -2.69115l0.33726 4.32047c0.0154 0.19404000000000002 0.17248 0.34573000000000004 0.36652 0.35497 1.77562 0.08008 3.4727 0.06237 5.2352300000000005 -0.04774 2.58104 7.69846 3.7429699999999997 15.62792 4.0471200000000005 23.501170000000002 0.25641 -0.025410000000000002 0.51282 -0.049280000000000004 0.76846 -0.07469 -0.31262 -8.04111 -1.51536 -16.146130000000003 -4.19958 -24.01784v0.00231Zm-74.020177 25.888170000000002c1.29668 -0.6545 2.6002899999999998 -1.2959100000000001 3.91083 -1.92577 1.99738 5.26757 3.9963 11.59235 5.51166 18.808636 -2.57334 -5.867246 -5.72341 -11.530596000000001 -9.42249 -16.882866Zm21.516187000000002 -5.67875c-2.4978800000000003 0.56749 -4.01863 3.1531499999999997 -4.5954369999999995 4.33664 -0.84931 1.74636 -1.42989 3.6829100000000006 -2.5379199999999997 5.2976 -2.01894 -6.5265200000000005 -4.717020000000001 -12.89519 -8.07114 -18.97434 3.8399900000000002 -1.4760900000000001 7.726180000000001 -2.84746 11.649407 -4.11411 1.0364200000000001 3.04073 1.83491 6.06529 2.54562 8.987440000000001 0.36113 1.4861 0.6983900000000001 2.97528 1.00947 4.46677Zm26.07528 -27.981800000000003c1.5823500000000001 -0.29953 2.17294 -0.20020000000000002 3.37106 1.59005 0.37113999999999997 0.5551699999999999 0.73612 1.11419 1.09417 1.67706 -6.90767 0.24255000000000002 -15.570170000000001 0.6622 -24.98573 1.37522 6.788320000000001 -1.7941 13.63824 -3.34411 20.519730000000003 -4.64233h0.0007700000000000001Zm20.952469999999998 7.65611 -0.29183000000000003 -3.7375800000000003c1.2058200000000001 0.61523 3.36105 2.28074 4.65234 3.69215 -1.44991 0.07700000000000001 -2.9106 0.10087 -4.3605100000000006 0.04543Z" stroke-width="1"></path></g><g id="folder"><path id="vector_25" fill="#000000" d="M64.223467 124.28877999999999c-2.65496 -3.6890700000000005 -3.93855 -8.28058 -5.07045 -12.33232 -0.30954000000000004 -1.10803 -0.61985 -2.2191400000000003 -0.93016 -3.3325600000000004 -5.29067 1.23354 -10.51281 2.7566 -15.635620000000001 4.56379 -1.6231600000000002 -6.05836 -3.87233 -11.94655 -6.68591 -17.55215 -12.09901 3.02148 -13.158529999999999 3.2186 -15.80117 3.17625 -4.810960000000001 -0.07700000000000001 -10.154760000000001 -2.19296 -14.0979608 0.56364 -4.98498 3.48579 -0.19404000000000002 6.35558 3.1678108000000003 7.98798 5.0334900000000005 2.44398 10.50665 4.1710899999999995 15.810410000000001 5.85123 8.83267 2.79741 17.64763 5.661040000000001 26.50109 8.39377 1.32748 0.40964 8.00261 2.43012 13.043800000000001 3.04381 -0.11011 -0.11627 -0.21175000000000002 -0.2387 -0.30184 -0.36344Z" stroke-width="1"></path><path id="vector_26" fill="#000000" d="M150.07377000000002 60.612860000000005c-1.5969799999999998 -2.21452 -6.80218 -0.8793399999999999 -9.08677 -0.67914 -12.97758 1.13806 -25.925900000000002 3.02148 -38.69019 5.626390000000001 0.69993 -2.10133 1.39909 -4.43058 1.27204 -6.78678 -0.20790000000000003 -3.8507700000000002 -2.6796 -6.24162 -6.428730000000001 -5.28143 -9.07137 2.32232 -12.838209999999998 15.322230000000001 -17.42895 25.570159999999998 -3.97474 8.87579 -7.23877 17.32731 -10.15861 26.04833 -3.12851 -14.46291 -8.882719999999999 -28.34293 -16.77522 -40.882380000000005 -2.89597 1.56464 -2.91753 3.7807000000000004 -2.59875 5.978280000000001 2.04589 14.09947 5.94517 28.050330000000002 9.715860000000001 41.54304 1.16963 4.18495 2.37853 8.51235 4.95418 12.09054 3.00377 4.17725 11.84876 1.4152600000000002 16.694370000000003 0.8608600000000001 20.06004 -2.29537 31.82872 -5.73727 48.8488 -11.837209999999999 3.5604799999999996 -1.27589 4.80018 -1.77177 6.33864 -5.347650000000001 6.85916 -15.95055 10.27565 -28.42686 13.370280000000001 -42.47474 0.39963000000000004 -1.8033400000000002 0.74382 -3.36028 -0.02695 -4.42827Zm-0.91861 5.15438c-2.9267700000000003 14.04095 -7.3450299999999995 27.98488 -13.133120000000002 41.44371 -1.47994 3.4419 -2.58874 3.7414300000000003 -6.15769 5.02271 -9.97766 3.58204 -19.86754 6.837600000000001 -30.48738 8.92122 -11.127270000000001 2.18295 -15.98597 2.4024 -20.40192 3.1793299999999998 -3.9185300000000005 0.68992 -11.21274 1.97274 -12.578719999999999 -0.24178 -1.28667 -2.08516 -0.08085 -6.08608 0.63679 -8.476930000000001 3.75991 -12.52405 7.85323 -23.89618 13.38106 -36.23928 4.445209999999999 -9.927610000000001 8.1928 -22.90596 16.9169 -25.138960000000004 3.27019 -0.8377600000000001 5.28759 1.21121 5.46931 4.57688 0.13167 2.4486000000000003 -0.70609 4.93801 -1.44606 7.13405 -0.09471 0.28028 0.14861000000000002 0.55825 0.44275 0.49973 22.35926 -4.60922 37.268 -5.40617 41.337450000000004 -6.01678 1.70478 -0.25641 5.29683 -0.77847 6.31554 0.6314 0.68838 0.95403 0.06699 2.96681 -0.29414 4.70393l-0.0007700000000000001 0.0007700000000000001Z" stroke-width="1"></path></g></g></svg>