<svg xmlns="http://www.w3.org/2000/svg" viewBox="0 0 400 400" id="Modular-Coding-1--Streamline-Milano" height="400" width="400"><desc>Modular Coding 1 Streamline Illustration: https://streamlinehq.com</desc><g fill="#000000"><path d="M78.62 105.04a0.26 0.26 0 0 0 0 -0.5 47.46 47.46 0 0 0 -15.48 0.92c-0.14 0 -0.1 0.26 0 0.26 2.62 -0.04 12.86 -0.6 15.48 -0.68zM114 103.3c0.48 0 0.48 -0.76 0 -0.74 -7.02 0.46 -14 0.58 -21.1 0.94a0.22 0.22 0 1 0 0 0.42c7.1 0.24 14.18 -0.16 21.1 -0.62zm29.08 -1.6a0.28 0.28 0 0 0 0 -0.54c-3.1 0 -15.6 0.68 -18.7 0.94a0.16 0.16 0 0 0 0 0.32 112 112 0 0 0 18.7 -0.72zm5.64 -1.24a0.22 0.22 0 0 0 0 0.44c3.16 0.18 6.36 0 9.52 0a0.34 0.34 0 0 0 0 -0.68c-3.16 0.02 -6.38 -0.06 -9.52 0.24zM64.6 129.72c3.42 -0.2 6.8 0 10.2 0 0.32 0 0.42 -0.52 0 -0.6a27.48 27.48 0 0 0 -10.3 0.38l0.1 0.22zm15.4 -1.34s-0.44 0.86 -0.3 0.84c2.5 -0.24 2.36 2.16 2.56 4a12.88 12.88 0 0 0 0.52 3.5 2.76 2.76 0 0 0 3.7 1.34 0.3 0.3 0 0 0 0 -0.58c-1.38 -0.12 -2.22 0.34 -3.06 -1.44a8 8 0 0 1 -0.32 -2.2c-0.14 -1.16 -0.22 -2.36 -0.46 -3.5s-0.74 -1.54 -1.5 -1.62a4.76 4.76 0 0 0 1.9 -2c0.82 -2.26 -2 -5.58 2 -6 0 0 0.12 -0.14 0 -0.16 -1.22 -0.12 -2.6 0 -2.9 1.48a9.5 9.5 0 0 0 0.18 2.6A3.48 3.48 0 0 1 80 128.38zm16.16 -7.66a0.16 0.16 0 0 0 -0.32 0c-0.92 2.44 -4 12.46 -4.48 15.02 0 0.28 0.38 0.54 0.52 0.22 0.96 -2.36 3.74 -12.52 4.28 -15.24zm7.34 13.9c0 0.8 0 1.08 -0.8 1.38a16.28 16.28 0 0 1 -2.2 0.36c-0.42 0 -0.34 0.76 0 0.72 1.16 0 3.18 0 3.62 -1.22 0.6 -1.64 -0.9 -5.86 1.52 -7.4 0.12 0 0 -0.66 -0.12 -0.74a5.64 5.64 0 0 1 -1.64 -0.88c-0.78 -0.72 -0.62 -1.52 -0.5 -2.46 0.34 -3 -0.84 -5.18 -3.46 -3.7a0.18 0.18 0 0 0 0.14 0.34 2.58 2.58 0 0 1 2.52 0.62 3.36 3.36 0 0 1 0.28 1.8c0 1.42 -1.38 3.5 2.22 4.82 -1.78 0.92 -1.48 3.74 -1.58 6.36zM118.68 126a29.22 29.22 0 0 0 -7.78 0.68c-0.34 0 -0.26 0.62 0 0.6a29.12 29.12 0 0 0 7.7 -0.76c0.3 -0.1 0.36 -0.52 0.08 -0.52zm8.54 0.1c0.24 -0.14 0.12 -0.44 -0.14 -0.48 -0.66 0 -3.32 0.3 -4 0.3 -0.36 0 -0.32 0.48 0 0.52a6.58 6.58 0 0 0 4.14 -0.34zM65.1 152.8a99.18 99.18 0 0 0 21.36 -1.24 0.28 0.28 0 0 0 0 -0.56c-7.08 0.2 -14.22 0.8 -21.3 1.28a0.26 0.26 0 0 0 -0.06 0.52zm31.52 -2.56a30.92 30.92 0 0 0 5.62 0 0.3 0.3 0 0 0 0 -0.56 30.94 30.94 0 0 0 -5.62 0 0.34 0.34 0 0 0 0 0.56zm13.66 -1.56c-0.32 0 -0.32 0.5 0 0.48 4.9 -0.14 9.82 0.24 14.72 0 0.32 0 0.42 -0.54 0 -0.58a71.78 71.78 0 0 0 -14.72 0.1zm-9.52 21.96c4.72 -0.28 9.5 0 14.2 -0.3 0.34 0 0.48 -0.6 0 -0.64a69.58 69.58 0 0 0 -14.28 0.22c-0.38 0.08 -0.38 0.74 0.08 0.72zm31.34 -0.34c0.32 0 0.44 -0.56 0 -0.62a84.16 84.16 0 0 0 -10.3 -0.38c-0.38 0 -0.36 0.56 0 0.6a79.4 79.4 0 0 0 10.3 0.4zM83.62 172a69.32 69.32 0 0 0 9.78 -0.32c0.3 0 0.18 -0.46 0 -0.5a74.86 74.86 0 0 0 -9.7 0.12 0.36 0.36 0 0 0 -0.08 0.7zm15.94 14.48c9.52 0.12 19.04 0 28.56 -0.26a0.44 0.44 0 0 0 0 -0.86c-9.52 0.16 -19.04 0.32 -28.56 0.7a0.22 0.22 0 1 0 0 0.42zm53.14 -0.8c0.24 0 0.38 -0.44 0 -0.5a85.5 85.5 0 0 0 -18.92 0 0.26 0.26 0 0 0 0 0.5c3.2 0.14 15.82 0.32 18.92 0zM212.86 90c-3.8 4.48 -4.12 11.84 -2 17.08a0.18 0.18 0 1 0 0.34 0 22.3 22.3 0 0 1 2 -16.72c0.1 -0.36 -0.18 -0.54 -0.34 -0.36zm15.14 1.14a0.14 0.14 0 0 0 -0.24 0c1.52 6.48 2.42 9.82 -1.22 17.42a0.2 0.2 0 0 0 0.34 0.2c3.38 -4.66 4.28 -12.54 1.12 -17.62zm-20.88 25.22a82.34 82.34 0 0 0 18 2.38c0.38 0 0.5 -0.6 0 -0.68a159.42 159.42 0 0 0 -18 -2 0.14 0.14 0 0 0 0 0.3zm-1.68 22.02v0.18a103.4 103.4 0 0 0 17 3.02c0.52 0 0.52 -0.78 0 -0.8 -3.32 -0.16 -14.66 -2.78 -17 -2.4zm57.96 6.66a0.4 0.4 0 0 0 0 -0.8c-4.42 -0.24 -22.22 -2 -26.48 -1.52v0.14c3.88 1.34 21.9 2.26 26.48 2.18zm-28.04 9.4c1.04 -0.3 2.78 0.2 4 0 0.3 0 0.2 -0.48 0 -0.5 -1.6 0 -3.18 0 -4.76 -0.3a0.34 0.34 0 0 0 -0.3 0.24 89.3 89.3 0 0 0 -1.02 12.66c0 0.64 -0.32 2 0.3 2.66s3.02 0.34 4 0.38c0.56 0 0.56 -0.82 0 -0.84a8.54 8.54 0 0 1 -2.48 -0.14c-1.4 -0.6 -0.98 -13.8 0.26 -14.16zm24.84 15c-0.4 1.28 -0.32 1.36 -1.82 1.5 -0.72 0 -1.32 0 -2 0.16a0.28 0.28 0 0 0 0 0.52c1.18 0.2 3.28 0.74 4.22 -0.22a79.08 79.08 0 0 0 2.16 -15.4c-0.68 -1.04 -3.64 -0.74 -4.56 -0.76 -0.24 0 -0.32 0.44 0 0.44 4.42 0 4.12 2.16 3.76 2.88a67.22 67.22 0 0 1 -1.76 10.88zm-7.86 -15.82c-3.14 6 -6.18 12.16 -8.98 18.34 -0.22 0.48 0.46 0.9 0.72 0.42 3.06 -6 6 -12.28 8.64 -18.54 0.12 -0.24 -0.24 -0.48 -0.38 -0.22zM284 171.48a0.38 0.38 0 0 0 0 -0.74 45.5 45.5 0 0 0 -11.02 -1.42 0.3 0.3 0 0 0 0 0.58 46.52 46.52 0 0 0 11.02 1.58zM207.34 164a0.26 0.26 0 0 0 0 0.52 57.3 57.3 0 0 0 18 1.56c0.3 0 0.42 -0.54 0 -0.6 -2.86 -0.42 -14.86 -1.48 -18 -1.48zm-2.38 13.38c8 1.04 15.88 2.76 23.82 4 0.56 0.1 0.82 -0.78 0.24 -0.88a238.18 238.18 0 0 0 -24 -3.44c-0.16 0.08 -0.2 0.3 -0.06 0.32zm34.04 5.12c3.24 0.26 6.4 0.98 9.64 1.3 0.4 0 0.4 -0.54 0 -0.66a22.26 22.26 0 0 0 -9.72 -1.04 0.2 0.2 0 0 0 0.08 0.4zm49.32 3.78a0.46 0.46 0 0 0 0 -0.66c-1.06 -1.3 -26.6 -2.28 -32.7 -2.82 -0.2 0 -0.24 0.32 0 0.34 5.04 0.86 32.64 3.2 32.7 3.14zm-24.92 101.98c-5 -1.46 -10 -2.78 -15.36 -1.88 -2.8 0.48 -4.28 1.48 -3.34 4.18 0.58 1.68 1.78 1.66 -0.86 4a10 10 0 0 1 -2.3 1.2 31.18 31.18 0 0 1 -12.96 2.32c-4.24 0 -8.84 0 -11.86 -3.28 -4.38 -7.36 8.86 -8.74 8.86 -8.74s0 -4.42 -0.2 -4.46c-4.18 -1.14 -8.42 -2 -12.68 -2.74a75.58 75.58 0 0 0 -11.78 -1.84c-8.58 -0.22 -22.82 9.86 -22.82 9.86l0.26 3.5 5.62 0.3c4.86 0.3 4.1 3.36 3.44 4.82a24.9 24.9 0 0 1 -11.84 5.34c-4.3 0.8 -12.1 1.56 -13.28 -4 0 0 -0.26 -0.32 -0.4 -0.24 -8.54 4.5 -24.7 15.62 -24.7 15.62v4.92s44.14 17.8 68 29.62 37.38 -4.42 37.38 -4.42l41.02 -39.26c0 -0.2 6.62 -6.22 -2 -10.38 -5.6 -2.7 -14.58 -3.38 -18.2 -4.44zm18.7 11.4s-30.38 27.38 -42 39.72 -32.84 3.38 -32.84 3.38l-69.58 -30.4c8 -5.44 15.88 -10.58 24.22 -15.36 0.74 4.76 6.76 5.12 10.56 4.8 20 -1.72 16.88 -10.1 16.88 -10.1 -0.62 -4.34 -8 -4.78 -10.5 -4.82 3.48 -2 6.9 -4 10.34 -6 8.72 -5.16 14.86 -3.06 24.22 -1.22 3.78 0.74 7.56 1.48 11.28 2.46a36 36 0 0 0 -8.9 4c-9.4 7.72 5.16 12.18 7.22 12.48a46 46 0 0 0 11.12 0 24.62 24.62 0 0 0 9.26 -2.78c2 -1.12 2.92 -2 2.44 -4.26 -0.24 -1.08 -0.9 -2.76 0 -3.58a4.24 4.24 0 0 1 1.5 -0.56 28.6 28.6 0 0 1 13.12 0.76c13.7 4.22 17.72 3.6 22 6.36 2.4 1.24 -0.34 5.12 -0.34 5.12z" stroke-width="1"></path><path d="M262.44 288.4a1.78 1.78 0 0 0 0.7 0.28 1.86 1.86 0 0 1 -0.7 -0.28zm76.7 -186.74a6.54 6.54 0 0 0 -0.32 2.14c0 0.16 0.22 0.26 0.32 0a6.68 6.68 0 0 0 0.46 -2c0.06 -0.32 -0.4 -0.46 -0.46 -0.14zm1.52 -0.1c0.42 0.56 0.94 -0.94 -1 -2.4 -0.28 -0.22 -0.64 0.26 -0.38 0.48a21.12 21.12 0 0 1 1.38 1.92zm3.34 8.76a3.4 3.4 0 0 1 -2.6 2.46c-0.22 0 -0.16 0.42 0 0.4 1.32 -0.14 3 -1.26 2.88 -2.76 0.08 -0.16 -0.28 -0.28 -0.28 -0.1zm38.1 222.14a2 2 0 0 0 -2.86 0.28 2 2 0 0 0 0.38 2.34c1.92 1.82 4.6 -1.08 2.48 -2.62zm-0.2 2a1.24 1.24 0 0 1 -1.84 0.1c-0.92 -0.64 -0.24 -2.56 1.46 -1.62 0.62 0.34 0.88 0.88 0.48 1.52zm-64.68 2.52a1.72 1.72 0 0 0 0.68 3.36 1.78 1.78 0 0 0 1.58 -2.2 1.74 1.74 0 0 0 -2.26 -1.16zm0.22 2.72a1.14 1.14 0 0 1 0 -2.2 1.1 1.1 0 0 1 1.5 0.82 1.18 1.18 0 0 1 -1.5 1.38z" stroke-width="1"></path><path d="M388 98.32a9.3 9.3 0 0 0 2 -5.3 5.14 5.14 0 0 0 -2.72 -4.72 2.24 2.24 0 0 0 -0.84 -2.7 6.34 6.34 0 0 0 -2.9 -0.98 10.92 10.92 0 0 0 -8.88 -14 4.64 4.64 0 0 0 -3.24 -4.48 5.7 5.7 0 0 0 -9.42 -4.52 4 4 0 0 0 -5.78 4.56 7.78 7.78 0 0 0 -8 7.04 5.2 5.2 0 0 0 -6.48 4.52 9.58 9.58 0 0 1 -0.12 1.86c-0.52 1.8 -2.66 2.5 -1.44 5.36 -2.32 1.24 -4.58 3.5 -4.16 6.34 0 0.52 0.32 1.58 0.28 1.7 -0.88 2.32 -1.06 4.8 -1.78 7.16a12.46 12.46 0 0 1 -2.52 4.1c-0.28 0.38 -0.7 0.5 -0.64 1.08 0.14 1.02 1.56 1.04 2 1.66a15.28 15.28 0 0 1 0.28 3.86c0.56 4.18 2.52 7.42 6.64 8.52 0.64 0.16 0.6 2.76 0.56 4.62 -4.18 0.12 -17.4 0.88 -22.1 1.42 0.62 -12.16 1.3 -25.6 1.48 -29.26 0.26 -6 -6.16 -7.46 -6.44 -7.52a260.7 260.7 0 0 0 -26.42 -3.12c-4.76 -0.46 -15.12 -2 -13.9 6.14 0.66 4.42 5.34 7.42 3.78 13.6 -1.48 5.8 -5.78 13.64 -11.5 15.26 -17.2 4.82 -23.74 -10.42 -24.48 -17.52 -0.78 -7.44 8.74 -13.58 8.74 -13.58 2.38 -7.36 -7.66 -7.86 -10.12 -8.22a179.46 179.46 0 0 0 -28 -2c-4.7 0 -8.76 0.48 -10.82 5.26 -3.74 8.62 -1.46 25.34 -3.16 31.2 -0.56 2 -1.38 3.74 -4.44 2.12a7.6 7.6 0 0 1 -1.04 -0.92c-5.44 -4 -15.16 -3.36 -20 0.4l-0.94 -24.62c-0.74 -8.58 -4.58 -10.66 -6.78 -11.14 -0.9 -0.82 -35.2 0.28 -38 0.52 1.48 -2.26 6.2 -11.06 -0.4 -23.66 0 0 -6.88 -9.84 -18.26 -9.36a22.16 22.16 0 0 0 -18.84 10.32c-4.28 6.94 -4 15.16 -2 18.9a34.78 34.78 0 0 0 5.2 6.18 90.94 90.94 0 0 0 -28.14 0 15.4 15.4 0 0 0 -9.42 4c-5.42 5.56 -4.82 14 -4.62 21.68 0 3.26 0.68 16.92 1.28 28.94 -1.8 -3.24 -4.96 -6.86 -8.4 -7.58 0.2 -1.86 -2.2 -2.7 -3.54 -2a12 12 0 0 1 -0.22 -2.52c0 -1.36 0.3 -1.18 1.64 -2a8.86 8.86 0 0 0 4.2 -4.46A18.88 18.88 0 0 0 46 112a50.8 50.8 0 0 0 -2 -10.38 2.74 2.74 0 0 0 1.24 -2.46 1.46 1.46 0 0 0 -0.16 -1 0.62 0.62 0 0 0 -0.88 -0.16 2.56 2.56 0 0 0 0 -2 1.34 1.34 0 0 0 -1.68 -0.72 2.52 2.52 0 0 0 -0.28 -1.68c-0.34 -0.48 -1.2 -0.58 -1.46 0 -0.6 -1.8 -2.12 -1.28 -2 -0.5a2.68 2.68 0 0 0 -1.52 -1.6 1.38 1.38 0 0 0 -1.78 0.9 3.44 3.44 0 0 0 -1.48 -1.3 1.24 1.24 0 0 0 -1.6 0.74 2.86 2.86 0 0 0 -2.62 -1.08 1.7 1.7 0 0 0 -1.26 2.26 4.26 4.26 0 0 0 -2.32 -0.62c-0.8 0 -1.58 0.86 -1.36 1.64a5.74 5.74 0 0 0 -3.46 -0.62c-0.82 0.4 -0.62 1.58 -0.3 2.42a2 2 0 0 0 -2.4 -0.28 1.48 1.48 0 0 0 -0.34 2 1.72 1.72 0 0 0 -2 0 2.3 2.3 0 0 0 -0.18 3.58c-2 -0.66 -4 0.78 -3.64 2.46a1.82 1.82 0 0 0 1.5 1.46 1.74 1.74 0 0 0 -0.24 3.44 1.44 1.44 0 0 0 -1.06 1.38 1.48 1.48 0 0 0 1.1 1.34 2 2 0 0 0 -1.52 2.2 2 2 0 0 0 2.24 1.48 2.6 2.6 0 0 0 0.3 4.48 2.64 2.64 0 0 0 0.8 3.18c1.06 0.96 2.18 0.76 2.66 0a2.16 2.16 0 0 0 3.5 2.1c0.28 0.72 0.86 1.44 1.48 1 0.2 1.84 0.52 3.7 0.8 5.52 -2.26 0 -1.8 3.2 -1.8 3.26C16.9 137 14 144.46 12.24 149.8a57.62 57.62 0 0 0 -2 22.32 97.08 97.08 0 0 0 4.34 21.76c1.76 5.3 4.72 11.62 8.44 15.1 -2.82 33.56 14.98 53.82 17.08 55.74s2.32 7.4 2.32 7.4l-5 58.12 1.78 0.46a19.34 19.34 0 0 1 -2.92 11.04 34.56 34.56 0 0 0 18.84 5.1c1.84 -0.78 0.46 -2.5 0.46 -2.5s-4.76 -4 -5.02 -7.76c0 -0.22 0.58 -2 0.78 -2.7l5.46 1.42c32 -67.84 10 -109.34 10 -109.34 -0.18 -0.4 0.6 -0.76 0.86 -0.34 8.18 12.62 10 46.26 10 46.26l25.5 54.64 3.18 -1.32c0.28 1.06 3.62 12.72 3.62 12.72a34.82 34.82 0 0 0 18.28 -6.9c1.02 -1.7 -1.12 -2.3 -1.12 -2.3s-6.22 0.16 -8.56 -3.38a38 38 0 0 0 -1.2 -4.72l3.58 -1.5c-12 -80.48 -36.16 -112.4 -38.72 -115.52 27.62 -0.74 80.82 -2.72 88.74 -2.7 5.14 0.78 4.78 -9.54 4.78 -9.54l-0.66 -27.06c0.36 -7.64 -6.34 -9.3 -12.28 -6.56 -1.84 0.84 -2.92 2.74 -4.66 3.74 -13.44 7.76 -28.96 -12.36 -21.88 -30.46 2.54 -6.54 8.54 -14.82 22.24 -11.72 1.7 0.38 2.9 2.86 8.66 4.82 -0.54 0.88 -1.06 1.76 -1.52 2.64A22.82 22.82 0 0 0 165.72 148a21.36 21.36 0 0 0 11.74 8.82 17.54 17.54 0 0 0 10.36 -0.8c2.24 -0.8 4.26 -2 6.38 0s2 6.48 1.76 9.14c-0.6 6.22 -4.58 15.8 -0.18 22.22 2.66 3.88 7.46 4.88 11.78 5.82 6.22 1.36 76.44 10 83.76 11.1 17.02 2.44 20.38 -6.12 20.38 -6.12l3.74 -30.9c1.1 0 1.74 0.1 3.06 0.14a48.78 48.78 0 0 0 -4.5 16.42c-0.44 4.96 -0.26 10.34 2.42 14.68a4.88 4.88 0 0 0 0.3 6.32c-2.22 3.34 -17.5 27.84 -16.38 66.26 -1.64 -0.5 -2.64 0 -3.14 2 -0.68 2.72 -1.84 7.18 -0.74 9.88s6 4.98 8.38 6.12c-0.22 5.8 1.62 29.32 2 35.24 -0.38 0.1 -0.62 0.36 -0.96 0.9a8.72 8.72 0 0 0 -0.46 4c-0.14 3.28 -1.76 3.84 -4.34 5.04a7.78 7.78 0 0 0 -4.54 6c-0.14 2 2.56 2.22 4.12 2.62a72.64 72.64 0 0 0 22.1 1.48 0.34 0.34 0 0 0 0.34 -0.32c0 -4.9 1.34 -13.1 -2.44 -12.42 1.7 -6.16 6.86 -31.16 7.3 -37.44 2.14 -0.12 3.16 -1.36 4.46 -3.54a21.82 21.82 0 0 0 2 -4.76 8 8 0 0 0 0.78 -3.6c-0.26 -1.18 -1.38 -1.66 -2.56 -2.1l4.34 -9.78s-7.7 -25.86 -8.38 -33.8c0 -1.32 0.5 -2.58 1.26 0 2.12 7.14 13.46 44.9 13.46 44.9 -2.9 1.9 0.26 9.42 2.32 11.02s5.22 0.96 7.04 0.7c3.52 8.8 13.38 29.54 13.38 29.6a6.48 6.48 0 0 0 0.34 5.5c1.88 4.16 -1.82 6 -3.72 9.22s-1.24 5.84 -0.12 8.96a0.3 0.3 0 0 0 0.3 0.22 36.84 36.84 0 0 0 23.6 -11.22 0.36 0.36 0 0 0 0.1 -0.36c-0.74 -2.16 -1.5 -4.34 -2.38 -6.46s-1.66 -4.56 -4 -4.88c-0.42 -3.36 -3.6 -28.54 -5.4 -37.8a7.08 7.08 0 0 0 3.88 -3.8 12.86 12.86 0 0 0 0 -8.7c-0.48 -1.36 -1.18 -1.88 -2.22 -2 -0.22 -6 -2 -47.84 -10 -62.2 1.58 -1.06 3.3 -3.74 1.46 -4.88 2 -2.28 2.42 -5.72 2.82 -8.76 1.84 -13.68 1.36 -27.68 0.68 -41.42 -0.18 -3.42 -1.62 -10 -1.54 -10 2.76 -1.56 2.26 -4.76 2 -7.5 -0.46 -4 -0.82 -8.22 -1.46 -12.3 -1 -6.42 -4.16 -9.36 -12.36 -7.8 0.1 -2.14 0 -4.38 -0.18 -6.48a3.3 3.3 0 0 0 1.78 -0.58 20 20 0 0 0 4.26 1.78 9.08 9.08 0 0 0 5.56 0.56 2 2 0 0 1 0.98 -0.2c0.46 0 0.72 0.56 1.04 0.92a2.72 2.72 0 0 0 2.98 0.66 2.68 2.68 0 0 0 1.54 -2.52 7.74 7.74 0 0 0 9.26 -5.02 4.3 4.3 0 0 0 2.74 -7.46zM117.02 320.72c0.26 1.18 0.98 5.38 1.28 6.24 -2 7.46 -8.32 4.82 -9.38 4.28 -0.32 -1.22 -2 -5.34 -2.28 -6.2zM342 87.06a60.54 60.54 0 0 1 8.4 9.26c-0.18 3.34 -0.16 8 1.74 10.76a64 64 0 0 1 -6.72 -4.9 19.28 19.28 0 0 1 -3.82 -11.02 11.64 11.64 0 0 1 0.4 -4.1zm-4.94 1.34a9.26 9.26 0 0 1 3.28 -3.06 5.28 5.28 0 0 0 1.22 1.36 38 38 0 0 0 -0.36 4.5 18.12 18.12 0 0 0 3.16 10 48 48 0 0 1 -6.36 -7.02 5.2 5.2 0 0 1 -0.96 -5.78zm-252 89.74a4.78 4.78 0 0 1 2 2.78 5.08 5.08 0 0 1 -2.12 -0.38 8 8 0 0 0 0.1 -2.4zm2.3 3.5a23.66 23.66 0 0 1 0 2.64 15.54 15.54 0 0 0 -3.14 -0.28 22.84 22.84 0 0 0 0.72 -2.96c0.42 -0.04 2 0.48 2.4 0.6zm-0.1 3.2c0 0.2 -0.3 1.64 -0.46 2.16 0 0 -2.74 -0.4 -3.26 -0.5 0 -0.28 0.44 -1.64 0.56 -2 0.64 -0.04 2.74 0.36 3.14 0.34zm-4.34 4.34c0.2 -0.7 0.36 -1.42 0.5 -2.14a15 15 0 0 1 3.3 0.26 14.76 14.76 0 0 1 -0.74 1.66c-0.8 0.64 -2.5 0.3 -3.08 0.22zm2.4 0.6a3.82 3.82 0 0 1 -3.02 1.06 7.64 7.64 0 0 0 0.5 -1.24c0.6 0.1 2.28 0.18 2.5 0.18zm-3.72 1.2a4.4 4.4 0 0 1 -3.84 1.8c-3.22 0.32 -6.2 0.6 -9.52 0.62a23.1 23.1 0 0 1 -1.16 -13.16c0.54 -3.1 2.34 -9.26 5.04 -10.28 2.88 1.36 5.4 2.66 8.16 4.24a12.74 12.74 0 0 1 3.14 2c2.02 2.2 -1.16 13.62 -1.84 14.78zM69.2 172a18.8 18.8 0 0 0 -2.56 6.34 25.44 25.44 0 0 0 0.84 15.1c-8.5 0 -12.98 -1.7 -20 -5.46 -3.82 -8.86 3.2 -18.94 10.4 -23.6 4.68 0.7 9.4 3.26 13.54 5.24A6.86 6.86 0 0 0 69.2 172zm-22.42 15.62c-6.82 -3.6 -11.62 -6.6 -16.4 -12.68a16.84 16.84 0 0 1 6.66 -14.36 26 26 0 0 1 15.02 -6c1.42 2.92 3.84 9.52 4.16 9.54h0.86c-7.52 4.34 -13.58 15.06 -10.3 23.5zm-16.92 -13.38A74 74 0 0 1 21.1 158a24.22 24.22 0 0 1 8 -11.02c5.56 -4.8 9.52 -5.32 16.54 -3.3 0 0 4.32 6.88 6.1 10.48A19.32 19.32 0 0 0 44 156c-8 3.22 -14.74 9.72 -14.14 18.24zm16.7 -30a22.24 22.24 0 0 0 5.2 -2.98c0.24 4.96 0.5 9.48 0.7 12.68a87.74 87.74 0 0 0 -5.9 -9.74zm-4.64 -14c1.42 1 0.46 2.56 -0.44 3.62a6.2 6.2 0 0 0 -1.6 -3.58 1.74 1.74 0 0 1 2.12 -0.12zm-2.3 0.18a7.6 7.6 0 0 1 1.54 3.78 11.12 11.12 0 0 1 -2.14 1.8 6 6 0 0 0 -1.34 -4.24c0.32 -0.32 1.68 -1.26 1.94 -1.42zm-8 2.6a28.82 28.82 0 0 0 2.96 -0.16 34.16 34.16 0 0 1 0.98 4.66 8.1 8.1 0 0 1 -3.16 0.48 18.6 18.6 0 0 0 -0.72 -5.06zM32 138a12.24 12.24 0 0 1 -3.8 -0.36c0 -1.72 0 -3.48 -0.16 -5.2 0 0 2.16 0.4 3.3 0.48 0.08 1.7 0.5 3.38 0.66 5.08zm2.98 -5.28a8.3 8.3 0 0 0 2.44 -0.88 7.54 7.54 0 0 1 1.3 4.26 24.22 24.22 0 0 1 -2.66 1.22 8.26 8.26 0 0 0 -1.12 -4.6zm-12.78 -16.14a9.18 9.18 0 0 1 -2.48 -2c-2.48 -3.1 0.94 -6 3.78 -5.36a3.54 3.54 0 0 1 2.2 1.8A7.32 7.32 0 0 0 26 112c0 0.14 0.36 0.46 0.7 0 1.3 -1.8 -0.32 -3.68 -0.14 -5.78a4.48 4.48 0 0 1 2.3 -3.28 12.24 12.24 0 0 1 4 -1.26 19.86 19.86 0 0 1 7.6 -0.22 7.12 7.12 0 0 0 3.14 0.28c1.3 5.14 3.4 15.28 0.62 19.76a14 14 0 0 1 -5.18 4 16.32 16.32 0 0 0 0.24 4c-2 1.3 -1.72 3 -7.86 2.78 -2.32 0 -4.48 -1.16 -6.78 -1.32 -0.32 -2.06 -1.92 -11.94 -2.44 -14.38zm5.68 21a11.28 11.28 0 0 1 -2.66 -0.9c-0.8 -0.78 0.2 -4.84 0.2 -4.84a13.84 13.84 0 0 1 2.38 0.58 23.44 23.44 0 0 0 0.08 5.16zM24 131.7s0.88 0 1.28 0.12a12.7 12.7 0 0 0 -0.84 4.46 5.44 5.44 0 0 1 -1.52 -1.36c-0.62 -1.28 -0.3 -3.08 1.08 -3.22zM12.16 152.56c1.58 -6.4 4.6 -14 10.22 -17.78a5.52 5.52 0 0 0 3.36 2.62 14 14 0 0 0 15.38 -2.6 7.58 7.58 0 0 0 2 -2.98 16.76 16.76 0 0 1 8.46 8.82l-5.18 3.24a4.76 4.76 0 0 0 -0.54 -0.62 15.48 15.48 0 0 0 -15.56 2.28q-1.24 0.96 -2.4 2A21.28 21.28 0 0 1 15.6 144s-0.2 0 0 0.18a19.64 19.64 0 0 0 12 3.78 23.1 23.1 0 0 0 -6.58 9.4l-1.48 -3.64c0 -0.22 -0.44 -0.14 -0.36 0A88.52 88.52 0 0 0 26 169.1a30.2 30.2 0 0 1 -15.16 -3.06 51.82 51.82 0 0 1 1.32 -13.48zm-1.5 14.14A26.9 26.9 0 0 0 26 169.72a108.66 108.66 0 0 0 6.72 8.78 47.02 47.02 0 0 0 12.28 8.92 91.26 91.26 0 0 0 8.66 4.24 56 56 0 0 1 -21.18 -0.56 83.86 83.86 0 0 1 -19.7 -7.48c-0.78 -3.48 -2.08 -14.78 -2.12 -16.92zm2.28 17.86c12 8 27.58 9.72 41.6 7.52l2 0.58c0.18 4.34 0.82 8.6 4.82 10.26a49.82 49.82 0 0 1 -24.78 1.72 46.16 46.16 0 0 1 -20 -7.88c-0.58 -1.14 -2.98 -9.06 -3.64 -12.2zm36.7 153.16c-5.08 4.3 -9.52 -0.68 -10.14 -1.82 0 -1.7 0.1 -3.4 0 -5.1l11.24 2.94a15.44 15.44 0 0 0 -1.1 3.98zm-22 -127.28c-4.96 -2.72 -8 -5.7 -10.94 -12.86 11.1 8.76 32.84 10.7 45.5 5.66 2.46 0.7 4.98 0.62 18.3 0.26 -26.5 17.06 -44.82 11.26 -52.76 6.94zM156 117.54c-6.88 -1.08 -24.38 1.9 -25.42 20S141.6 162 141.6 162s10.24 5.7 17.72 -0.84a15.06 15.06 0 0 1 5.66 -3.8 10 10 0 0 1 5.74 0.12c0.22 4 1.66 29.42 1.78 35.04 0 4 -0.46 6.26 -1.68 7.22 -16.84 0 -102.54 3.44 -106.32 3.1 -5.9 -0.52 -7.04 -4.72 -7.46 -10l2.18 0.54a91.46 91.46 0 0 0 20.36 -0.2A4 4 0 0 0 82 191.4c5.08 0.64 5.64 -5.08 5.66 -5.06a9.14 9.14 0 0 0 4.4 0.74A11.12 11.12 0 0 0 96 186c0.96 -0.48 3.68 -2 2.54 -3.26 0.8 -0.46 2 -1.68 1.72 -2.54 -0.16 -0.46 -0.62 -0.54 -1.06 -0.48 0.78 -0.68 0.86 -1.74 -0.48 -1.64 -0.92 0 -4.82 0.94 -5.86 1.16 0.24 -0.96 0.68 -4.38 -0.64 -3.88 -0.74 0.28 -1.36 1.4 -1.82 2a8.66 8.66 0 0 1 -2.86 2 2.7 2.7 0 0 0 -2.62 -1.7c-0.66 -2.54 -3.02 -3.32 -5.72 -4.82 -1.84 -1 -3.7 -2 -5.58 -2.92 -5.08 -2.5 -11.14 -6 -16.92 -6.38A80 80 0 0 0 53.48 156c-0.68 -9.66 -2.72 -45.06 -2.52 -53.54a21.06 21.06 0 0 1 3.14 -11.8c2.88 -4.16 7.46 -5.08 12.18 -5.6a178.66 178.66 0 0 1 26.78 0c0.12 0 0.54 -0.74 0.28 -1.04a51.82 51.82 0 0 1 -4.74 -5.3c-2.44 -3.62 -2.96 -12.12 1.48 -19.16 4.76 -7.5 13.26 -10.26 21.72 -9.32 5.18 1.84 13.48 6.82 13.54 20 0 0 -2.88 13.38 -2.8 13.38 3.34 0.36 17.68 -0.38 21.08 -0.58 24.94 -1.48 24.26 11.6 24.26 11.6l1.14 26.76c-0.52 0.68 -1 1.4 -1.48 2.12 -4.46 -1.02 -7.04 -5.24 -11.54 -5.98zm-63.22 62a43.5 43.5 0 0 0 6.3 -0.96c0.6 0 0.48 1.66 -4.6 2.42v0.18c2.56 0.42 4.96 -1.74 5.36 -0.7 0.16 0.38 -0.52 1.18 -0.76 1.38a6.6 6.6 0 0 1 -2.84 1.1c-0.12 0 -0.14 0.24 0 0.26a3.52 3.52 0 0 0 2.16 -0.36c1.28 1.76 -4.12 3.34 -5.06 3.5a10.9 10.9 0 0 1 -5.54 -0.48 14.46 14.46 0 0 0 0 -6.12 6 6 0 0 0 3.02 -2.18c0.3 -0.42 1.1 -2.22 1.84 -1.66a32.52 32.52 0 0 1 0.06 3.62zm215.34 18c-0.22 2.48 -2.78 4.22 -4.48 5.12a40.48 40.48 0 0 1 -12.14 0.42c-6 -0.3 -83.54 -10.26 -88.82 -12 -13.56 -4.46 -5.84 -18.64 -6 -28.52 0 -2.72 -0.74 -8 -4.12 -8.52 -2 -0.32 -4 1.06 -5.68 1.62a16.72 16.72 0 0 1 -9.24 0.54 19.76 19.76 0 0 1 -13.12 -12.2 22 22 0 0 1 0 -12.52 25.42 25.42 0 0 1 4.12 -8.62c3.06 -4.46 4.2 -6.18 9.84 -7.62a16.72 16.72 0 0 1 13.64 2c0.9 0.68 1.74 2 2.94 2.18S197.48 118 198 116.94c2.16 -4.94 1.02 -11.48 1.3 -16.74 0.2 -3.56 0.52 -7.1 1.06 -10.62s1.6 -7.74 5.44 -9.16c3.16 -1.16 7.26 -0.7 10.58 -0.64 10.6 0.16 15.12 1.08 20 1.42 16.72 1.16 10.34 7.18 10.34 7.18a16.28 16.28 0 0 0 -8.72 13.88c-0.42 12.68 15.36 18.9 15.36 18.9a17.24 17.24 0 0 0 17.1 -2.64 24.46 24.46 0 0 0 7.84 -15.24c0.4 -4.86 -4.18 -7.88 -4.34 -12.52 -0.18 -6.12 7.48 -5.18 11.4 -4.78 9.72 0.96 19.82 1.3 29.32 3.72a8 8 0 0 1 2 5.6l-2.24 51.48a182.2 182.2 0 0 1 -26 -4.5c-0.14 0 -0.62 0.92 -0.76 1.3a7.08 7.08 0 0 1 -3 -3.62c-0.14 -0.58 0 -1.44 -0.86 -1.54s-1.24 0.74 -1.52 1.24a4.18 4.18 0 0 0 -0.5 2.54 21.4 21.4 0 0 0 -3.44 -2.52c-0.68 -0.38 -2 -1.58 -2.78 -0.66a1.5 1.5 0 0 0 0 1.38 2.84 2.84 0 0 0 -0.24 3.46 5.26 5.26 0 0 0 2 4.92c1.7 1.38 4.58 1.16 6.84 3.82 0 0 -0.46 1.82 -0.72 2.72a0.24 0.24 0 0 0 0.12 0.28c11.3 7.1 14.62 10.2 29.5 11.38 -0.52 2.18 -4.68 27.02 -5.08 30.64zM278.62 146.6c-2 -1.46 -4.14 -3.26 -3.04 -5.82a6.78 6.78 0 0 0 3.16 3.62c0.22 0.12 0.36 -0.18 0.18 -0.32a10.34 10.34 0 0 1 -2.22 -2c-0.54 -0.74 -2 -3.4 0.44 -2.54a27.48 27.48 0 0 1 4.86 3.4 0.22 0.22 0 0 0 0.3 -0.3s-0.26 -2.7 0.62 -3.4c1.5 -1.22 1.28 0.2 1.4 0.8a7.02 7.02 0 0 0 3.18 4c-1.08 2.64 -2.14 5.32 -3.06 8 -2.5 -2.8 -5.52 -2.46 -7.14 -4a6.66 6.66 0 0 1 -1.78 -3.78 6.84 6.84 0 0 0 3.06 2.66c0.1 0.1 0.18 -0.2 0.04 -0.32zm43.24 197.24a92.88 92.88 0 0 1 -16.52 -0.6 36.3 36.3 0 0 1 -6.96 -1.64c-2 -0.78 -1.64 -1.56 -0.42 -3.72a6.54 6.54 0 0 1 2.54 -2.48 7.56 7.56 0 0 0 1.76 1.82 0.32 0.32 0 0 0 0.4 -0.38 7.06 7.06 0 0 0 -1.54 -1.78l1.36 -0.64c0.2 0.26 1.1 1.5 1.48 1.64a0.3 0.3 0 0 0 0.44 -0.34c0 -0.4 -1.1 -1.42 -1.3 -1.58l0.92 -0.46c0.14 0.26 1.06 1.52 1.42 1.28s-0.62 -1.4 -0.86 -1.64c1.6 -1.2 1.42 -2.86 1.48 -4.82 0 -1.04 -0.24 -4.54 2.34 -2.74 0.78 0.54 1.2 3.14 1.52 4 0.86 2.58 2.3 6.2 5.44 6a5.42 5.42 0 0 0 5.12 -3.74c2.76 -0.02 2.32 11.12 1.38 11.82zm-2.1 -11.84c-0.26 2 -3.38 3.26 -5.02 2.88 -2.12 -0.5 -3.16 -2.66 -3.84 -4.48s-1.18 -5.7 -3.34 -6.18c-0.32 -6 -0.88 -29.24 -1.62 -34.74a82 82 0 0 0 21.14 4.72c-1.74 6.26 -7.3 37.8 -7.32 37.8zm12.56 -51c2 1.04 2 1.7 1.8 2.96 -0.38 2.32 -2.12 6.94 -3.7 8.2a6 6 0 0 1 -5.06 0.9c-3.08 -0.36 -6.14 -0.9 -9.2 -1.48a46 46 0 0 1 -14.78 -5.3c-2.84 -1.66 -4.7 -3.62 -4.48 -7.08 0.14 -2.16 0.22 -9.1 4 -7.42 0.1 0.22 30.68 8.94 31.42 9.3zm9.38 -42c0.38 -2.34 11.1 -4.16 15.7 -5.32s5.58 4.1 5.58 4.1l0.54 3.02c-2.4 0.6 -4.84 1.18 -7.28 1.86a6.86 6.86 0 0 0 -0.48 -1.02 0.38 0.38 0 0 0 -0.68 0.2 5.6 5.6 0 0 0 0 1.14 54.4 54.4 0 0 0 -7.06 2.44c-1.02 -3.16 -2.32 -6.22 -5.68 -6.78 -0.2 0 -0.42 0.12 0 0.26 3.88 1.5 4.78 5.64 5.78 9.3a28.46 28.46 0 0 1 1.62 10.78c0 0.3 0.44 0.3 0.48 0a30.12 30.12 0 0 0 -2 -12.82c2.46 -0.5 4.56 -1.5 7 -2.2 0.14 0.64 0.34 1.28 0.52 1.84s1.44 0.3 1.14 -0.36 -0.26 -1.22 -0.44 -1.86c2.38 -0.7 4.74 -1.46 7.1 -2.14l2.14 12c0.26 8.24 -17.14 7.4 -17.14 7.4zm38.9 88.38c-0.1 -0.98 -0.2 -2 -0.32 -2.96 2.7 0.74 4 7.04 5.12 10 0.8 2 -10.46 9.1 -16.52 10.66 -1.46 0.38 -2.94 0.54 -4.42 0.84s-1.3 0.48 -1.68 -0.76c-0.9 -2.96 -1.04 -6.2 1.02 -8.24a14.38 14.38 0 0 0 2.14 2.56c0.14 0 0.28 0 0.3 -0.22 0 -0.56 -1.58 -2.44 -2 -2.88 0.36 -0.44 0.78 -0.88 1.18 -1.32 0.3 0.26 1.4 1.72 1.82 1.8a0.36 0.36 0 0 0 0.44 -0.34c0 -0.46 -1.44 -1.76 -1.76 -2a11.42 11.42 0 0 0 1.14 -1.5c0.5 0.36 2.14 2.34 2.38 1.44 0.14 -0.5 -1.64 -1.76 -2.1 -2a3.62 3.62 0 0 0 0 -3.3c-0.9 -2.26 -1.56 -3.12 -0.98 -5.62 2.22 4.92 5.36 10.14 10.8 8.54a4.48 4.48 0 0 0 3.44 -4.62zm-0.86 -0.62a3.74 3.74 0 0 1 -3.38 4.74c-4.42 0.64 -6.96 -3.84 -8.6 -7.2s-10.94 -24.44 -14.36 -31.42c3.38 -0.8 20.1 -6.48 20.54 -6.66 1.34 8.02 5.44 38.66 5.8 40.62zm-3.34 -54.42c2.42 0.56 2.58 4.78 2.48 6.62a6.6 6.6 0 0 1 -4.84 6.54c-3.7 1.36 -18 6 -21.6 6.62 -2.8 0.56 -5.76 0.86 -7.5 -2 -0.92 -1.5 -3.32 -7.66 0.12 -8.64zm-10.4 -63.26c-2.56 0.72 -31.88 8.56 -47.84 -3.62 -3.56 -2.74 -1.62 -6.6 -1.4 -6.28a21.22 21.22 0 0 0 11.88 7.8c10.4 3.06 18.74 2.22 28.4 1.06 3.3 -0.42 8.2 -0.7 10.4 -3.02 1.62 1.1 0.04 2.78 -1.44 4.06zm-8 -92a16.72 16.72 0 0 1 7.32 0.48c3.28 1.34 4 4.7 4.52 7.88 0.36 2.82 0.66 5.66 0.96 8.48s1.74 7.78 -1.26 9.78a40.16 40.16 0 0 0 -3.68 -6 16.7 16.7 0 0 0 -15.5 -5.7c-0.26 0 -0.2 0.48 0 0.44a17.02 17.02 0 0 1 14.9 5.8c3.8 4.38 5.04 10 5.4 15.68 0.86 13.26 1.16 29.66 -0.78 42.82a15.06 15.06 0 0 1 -2.18 7c-2 2.68 -5.5 3.14 -16.38 4.24 -9.5 0.96 -23.8 0.12 -31.08 -6s-6.64 -16.82 -4 -26a69.58 69.58 0 0 0 10.7 3.84 14.9 14.9 0 0 0 9.18 0.48 16 16 0 0 0 1.22 18.54c0.2 0.22 0.54 -0.12 0.34 -0.34 -4.32 -4.98 -4.12 -12.82 -0.84 -18.54 0.16 -0.26 0 -0.54 -0.22 -0.48a17.76 17.76 0 0 1 -5.32 0.68c-5.72 -0.5 -11.4 -3.58 -14.88 -4.94 1.88 -5.72 2.7 -7.5 2.82 -7.86 14.9 0.26 31.38 -4 38.32 -18.44 0.16 -0.32 -0.32 -0.6 -0.48 -0.28 -9.42 18.34 -34.66 20 -52.82 16.2 -6.74 -1.42 -20 -8.86 -20.32 -9.42s4.24 -12.46 4.86 -12.52a153.2 153.2 0 0 0 29.46 4.68c0.54 -0.34 10.92 -10.32 20.18 -10.76a0.26 0.26 0 0 0 0 -0.52c-3.68 -0.36 -10.62 3.44 -10.9 3.62A58.58 58.58 0 0 1 332 132c0 -0.12 -0.1 -0.26 -0.2 -0.16a50.18 50.18 0 0 0 -5.24 8.7 61.82 61.82 0 0 0 -8.56 6.44h-0.56c0.1 -1.62 0.58 -10.9 1.1 -21.16 4.68 0 16.78 -0.82 19.5 -1.02 -2 1.06 -4.56 3.12 -2.22 4.98 2.92 2.32 8.96 1.1 12.24 0.52 4.3 -0.78 10 -1.86 12.82 -5.52 2.56 -3.24 1 -6.8 -3.06 -6.78 0.18 -0.3 0.18 -0.58 0.18 -0.88zm2.32 7.2c-2.42 3.1 -8.1 4.4 -12 5.12a24.94 24.94 0 0 1 -7.78 0.7c-8.84 -1.06 -1.86 -5.24 -1.38 -5.44s1 0 1.48 -0.12v0.7c0 0.4 0.58 0.38 0.62 0 0.18 -2 0.24 -4 0.36 -6 0 -0.2 -0.16 -0.32 -0.34 -0.34a8.28 8.28 0 0 1 -6.9 -6.9c-0.32 -1.64 0 -3.52 -0.46 -5.1 -0.12 -0.44 -0.46 -0.5 -0.78 -0.58s-1.5 -0.54 -0.72 -1.6c0.12 -0.16 1.06 -1.08 1.12 -1.16 2.16 -2.78 2 -7.22 3.04 -10.46a29.68 29.68 0 0 0 5.7 6.9 51.22 51.22 0 0 0 9.5 7.74 14.42 14.42 0 0 0 5.5 2.6 40.98 40.98 0 0 0 0 8.72c0 0.22 0.42 0.22 0.44 0v-0.26c5.06 0.42 3.64 4.18 2.58 5.52zm-7.2 -16.62a19.7 19.7 0 0 1 -2.34 -10.86c5.7 7.86 5.24 10.24 8.16 12.42a7.7 7.7 0 0 1 -5.84 -1.52z" stroke-width="1"></path><path d="M40 116c0.42 0.82 -0.34 1.06 -0.94 1.24a0.14 0.14 0 0 0 0 0.26c0.76 0.44 1.52 -0.42 1.48 -1.16s-1.64 -1.88 -2 -2.52c0 -0.1 -0.24 0 -0.2 0 0.06 0.68 1.44 1.86 1.66 2.18zm0.46 -6.42a6 6 0 0 0 0.26 2.22 0.2 0.2 0 0 0 0.32 0 5.82 5.82 0 0 0 -0.18 -2.24c-0.06 -0.26 -0.38 -0.2 -0.4 0.02zm-7.74 1.64a3.1 3.1 0 0 0 0.18 1.76 0.22 0.22 0 0 0 0.38 0 5.08 5.08 0 0 0 0 -1.82 0.26 0.26 0 0 0 -0.56 0.06zm1.46 -3.74a2.34 2.34 0 0 0 -2.8 1.1c0 0.1 0 0.18 0.12 0.1a3.68 3.68 0 0 1 2.66 -1.02s0.1 -0.14 0.02 -0.18zm8.02 0s0.18 0 0.16 -0.12c-0.18 -1.04 -1.6 -1.1 -2.34 -0.72v0.14a2.1 2.1 0 0 1 2.18 0.7zm-7.54 12.66a4.24 4.24 0 0 1 -4 -2.16c0 -0.18 -0.38 0 -0.34 0.16a7.4 7.4 0 0 0 1.68 3.02c0.46 0.48 0.56 0 0.32 -0.3a6.74 6.74 0 0 1 -1.12 -1.58 3.74 3.74 0 0 0 3.6 1.34 0.24 0.24 0 0 0 -0.14 -0.48zm196.24 20.38a1.36 1.36 0 0 1 1.36 1.38 1.34 1.34 0 0 1 -1.36 1.36 1.36 1.36 0 0 1 -1.38 -1.36 1.38 1.38 0 0 1 1.38 -1.38zm-7.64 -33.38a0.82 0.82 0 0 0 -0.86 0.84 0.86 0.86 0 1 0 0.86 -0.84zm-7.76 -0.54a0.72 0.72 0 0 0 0 1.42 0.72 0.72 0 0 0 0 -1.42zm3.8 0.28a0.82 0.82 0 1 0 0.8 0.82 0.8 0.8 0 0 0 -0.8 -0.82z" stroke-width="1"></path><path d="M86.12 104.5a0.94 0.94 0 1 0 1.88 0 0.94 0.94 0 1 0 -1.88 0" stroke-width="1"></path></g></svg>