<svg xmlns="http://www.w3.org/2000/svg" viewBox="0 0 400 400" id="Create-Account-1--Streamline-Milano" height="400" width="400"><desc>Create Account 1 Streamline Illustration: https://streamlinehq.com</desc><g fill="#000000"><path d="M320 168.16a10.46 10.46 0 0 0 10.88 -10 10.5 10.5 0 0 0 -10.36 -10.62c-79.28 -2.46 -76.5 -3.34 -80.96 0.66a10.3 10.3 0 0 0 -0.4 15.08c4.22 4.14 1.48 3.18 80.84 4.88zm-72.7 -21.74c77.84 2 75.44 0.66 79.64 4.8a9.56 9.56 0 0 1 2.9 7.04 9.28 9.28 0 0 1 -9.8 9.28c-79.46 -2.48 -76 -1.08 -80 -5.06a9.46 9.46 0 0 1 7.26 -16.06zm19.76 -11.12a4 4 0 1 0 8 0 4 4 0 1 0 -8 0zm22.6 -3.86c-5.82 -0.28 -6 9.2 0 9.22s5.82 -9.52 0 -9.22zm0 8.14c-4.48 0 -4.7 -7.48 0 -7.72 4.72 0.24 4.5 7.74 0 7.72zm18.64 -8.14c-5.68 -0.28 -6 9.2 0 9.22s5.84 -9.52 0 -9.22zm0 8.14c-4.54 0 -4.62 -7.48 0 -7.72 4.72 0.24 4.5 7.74 0 7.72zm12.28 32.06c-79.02 -2.54 -76.46 -3.46 -80.98 0.58a10.3 10.3 0 0 0 -0.4 15.08c4.34 4.34 3.18 3.24 80.82 5a10.48 10.48 0 0 0 10.88 -10 10.5 10.5 0 0 0 -10.32 -10.66zm9.26 10.72a10 10 0 0 1 -10.56 9.32C241.14 189.14 244 190.6 240 186.52a9.22 9.22 0 0 1 0.36 -13.5c4 -3.66 -0.24 -2.46 79.6 -0.64a10 10 0 0 1 10 10zm-28.18 19.52c-4.48 -0.3 -11.3 -0.8 -18.12 -1.24 -19.64 -1.28 -20 -1.68 -22.2 0.2a5.5 5.5 0 0 0 3.42 9.66c38.78 2.2 38 2.5 40.16 0.62a5.2 5.2 0 0 0 1.8 -3.64 5.34 5.34 0 0 0 -5.06 -5.6zm4.3 5.38a4.8 4.8 0 0 1 -5.22 4.36c-39.14 -2.72 -37.18 -1.66 -39.08 -3.66a4.3 4.3 0 0 1 0.38 -6.3c2 -1.66 1.78 -1.1 21.44 0 6.84 0.38 13.18 0.76 17.66 0.98a4.72 4.72 0 0 1 4.82 4.68zM260.48 88.6A35.34 35.34 0 0 0 268 115.34c18 21.66 50.36 7.24 50.34 -22.42s-32.4 -44.16 -50.14 -22.48c-5.88 -8 -17.34 -3.18 -17.34 7.08 -0.06 6.06 4.26 11 9.62 11.08zm8.32 -17.16c17.28 -20.74 48.46 -7.28 48.42 21.48s-31.04 42.68 -48.58 21.84c-6.12 -7.26 -8 -17.02 -6.88 -26.24 7.86 -0.4 11.72 -10.02 7.04 -17.08zm-9.76 5.54c0 -6 1.08 -6 1.08 0 5.42 0 5.42 1.08 0 1.08 0 5.74 -1.04 6 -1.08 0 -0.42 0 -3.34 -0.12 -3.34 -0.54a21.2 21.2 0 0 1 3.34 -0.54z" stroke-width="1"></path><path d="M289.22 92.68c-14 0 -14.22 13.72 -14.22 13.72l29.32 0.48s-1.2 -14.2 -15.1 -14.2z" stroke-width="1"></path><path d="M294.76 86.62a5.56 5.56 0 1 0 -11.08 0 5.56 5.56 0 1 0 11.08 0zm-47.82 64.66a2 2 0 0 0 0 4c1.06 0.02 2.44 -4 0 -4z" stroke-width="1"></path><path d="M246.94 155.3a4.58 4.58 0 0 0 -4.7 4.54L252 160a5.06 5.06 0 0 0 -5.06 -4.7zm8.24 25a0.2 0.2 0 0 0 -0.22 -0.2 19.58 19.58 0 0 0 -7.12 0c0 -1.64 -0.8 -4.56 -2.32 -4.48 -1.6 -0.1 -2.28 3.02 -2.36 4.72 0 6.54 4.62 6.74 4.7 0.3a13.32 13.32 0 0 0 2 0.24 1.34 1.34 0 0 0 -0.1 0.38 1.74 1.74 0 0 0 0.3 1.36 0.22 0.22 0 1 0 0.44 0 0.9 0.9 0 0 0 0.12 -0.2 2 2 0 0 0 0.14 -1.5h0.42a0.5 0.5 0 0 0 0 0.24c0.18 0.28 0.28 0.26 0.28 0.26s0.44 0.28 0.42 0 0.1 0 0.28 -0.26a0.36 0.36 0 0 0 0 -0.24h0.66a0.34 0.34 0 0 0 0 0.24c0.18 0.26 0.26 0.22 0.26 0.22a0.22 0.22 0 0 0 0.44 0l0.28 -0.24a0.5 0.5 0 0 0 0 -0.34h0.64c-0.42 1.6 0 1.64 0.16 2a0.22 0.22 0 0 0 0.44 0 2 2 0 0 0 0.14 -2.5zm-10.52 2.8c-0.92 -2.3 -0.56 -7.04 0.86 -7.14 2.48 0.16 1 11.82 -0.86 7.14z" stroke-width="1"></path><path d="M386.2 42.14a8.88 8.88 0 0 0 -9.26 -8c-31.84 2.96 -145.72 13.42 -176.74 17.06 -4.32 0.5 -6.2 5.16 -6 9 -0.34 0 -0.22 3.34 0 154.28a0.52 0.52 0 0 0 0.46 0.5l194.88 16.3c1.02 0.04 -1.34 -108.48 -3.34 -189.14zm-139.18 6.94c136.52 -13.04 128.46 -12.66 129.48 -11.66a2 2 0 0 1 -1.04 3.34l-127.88 12.22c-2.62 0.24 -3.06 -3.66 -0.56 -3.9zM228 51.34c8.74 -0.84 10.88 -1.6 10.98 0.8 0.12 2.86 -4 2 -6.58 2.48 0.12 -0.7 0.14 -3.68 -0.28 -3.66s-0.2 2.42 -0.14 2.84 0.12 0.66 0.16 0.84l-4 0.38c-2.5 0.22 -2.66 -3.44 -0.14 -3.68zm-6.36 2.54a1.7 1.7 0 1 1 -3.38 0 1.7 1.7 0 1 1 3.28 0zm-10.68 -1.14a1.84 1.84 0 0 1 0 3.68 1.84 1.84 0 0 1 -0.1 -3.68zm-6.74 2.6a1.7 1.7 0 1 1 -3.38 0c-0.1 -1.02 3.28 -2.42 3.28 0zM195.26 214c-0.4 -86.68 0.28 -145.02 0.24 -153.7 0 -0.2 29.74 -2.86 189.58 -17.8 0 5.04 2.92 126.32 4 187.66 -99.96 -8.4 -98.76 -8.3 -193.82 -16.16z" stroke-width="1"></path><path d="m230.26 52.38 -1.94 0.82 2.08 0.38 -0.14 -1.2zm6.12 0.08 -2.04 -0.7 0.06 1.4 1.98 -0.7zM114.18 129.6l0.28 -1.7s-5.64 -0.78 -7.58 0.46a7.38 7.38 0 0 0 -2.66 3.76 21.14 21.14 0 0 1 4.52 -2.52zm-1 31.18c-2 2.5 -2.46 1.5 -4.24 -0.92a0.22 0.22 0 1 0 -0.4 0.16 5.02 5.02 0 0 0 1.18 2.52c1.2 1.3 2.98 1.2 3.86 -1.56 0.04 -0.1 -0.26 -0.46 -0.4 -0.2zm-2.1 -23.84c0 1.7 -0.38 3.82 1.16 3.84s1.08 -2 1.14 -3.6a1.16 1.16 0 1 0 -2.3 -0.24z" stroke-width="1"></path><path d="M317.54 267a1.58 1.58 0 0 0 -0.52 -0.24c-8 -2.42 -120.94 -9.78 -122.76 -10a0.4 0.4 0 0 0 -0.22 0c-31.86 18.74 -28.12 15.38 -32 19.5 -3.26 3.5 -3 4.38 -7.36 5.18C147.14 265.54 132 236 121.24 222.28a49.44 49.44 0 0 0 -24.88 -29.72l1.52 -11c7.58 0.76 16.72 -1.26 18.82 -8.62A65.42 65.42 0 0 0 119.04 154c6 -1.72 6.4 -2.1 6 -2.94l-6.34 -13.36c3.38 -9.88 0 -22 -9.56 -31.08 -16 -14.94 -40.74 -16.74 -53.44 4.52 -16.36 27.5 7.1 41.38 6.62 54a60.6 60.6 0 0 1 -4 20c-11.28 0.7 -24 4.16 -32.22 11.74 -18.32 17.12 -22.74 65.7 -3.1 77.34 -1.1 60.46 7.8 96.66 6.8 91.14a809.46 809.46 0 0 1 -5.52 -90.44l0.86 0.4C49.44 285.54 92 230.42 114 222.9c5.24 -1.78 6.76 -0.46 6.92 -0.26 37.18 60.66 46.28 91 48 91.74h0.16c4.68 -1.6 49.86 -10.94 54.78 -12 9.62 2.76 17.86 8.94 17.14 19.18 -23.06 14.9 -70.6 41.86 -98.24 41.86 -37.48 0 -68 -67.36 -68.78 -67a0.22 0.22 0 0 0 0 0.3c0.26 0.36 31.02 69.12 68.5 69.16 35.76 0 108.56 -47.64 108.64 -48.82a12.42 12.42 0 0 0 0 -3.22c8.2 -1.46 8.94 -8.34 13.42 -12 15.5 2.36 14.72 2.4 14.92 2.2 4.36 -4 10.76 -9.8 32.92 -30.16 0.42 2.36 0.3 3.64 1.12 3.34 5.84 -2.14 6 -1.88 6.18 -2.44 -0.18 -0.1 0.64 -5.5 -2.14 -7.78zM63.44 162c1.44 0.82 6.2 3.24 5.42 -1.26a44.6 44.6 0 0 1 0.72 -17.48c-0.8 7.48 3.52 12.22 11.5 10.16a0.22 0.22 0 0 0 0 -0.44c-12.18 1.48 -10.68 -10.42 -10.82 -10.78A0.24 0.24 0 0 0 70 142a5.74 5.74 0 0 1 4.64 -4.14c7.36 -0.62 9.56 22.6 9.56 22.6l3.3 -1.84v-16.92c0 -6 8 -15.2 8 -15.2l-8 -12.76a63.3 63.3 0 0 1 22.62 -4.58 29.6 29.6 0 0 1 6.74 29.02l7.02 12.84c-6 1.84 -6.88 1.58 -6.82 2.28a64.54 64.54 0 0 1 -2.28 18.94 10 10 0 0 1 -5.22 6.28c-6.6 3.48 -12.72 1.28 -12.86 2.18L95.18 192a70.2 70.2 0 0 0 -35.36 -6.86C62.9 178 64.32 165.8 63.44 162zM28.58 198c16.54 -15.42 59.1 -18 81.42 6.66A85.18 85.18 0 0 0 76.64 208c-43.04 14.48 -45.02 29.12 -63.84 21.86A55.26 55.26 0 0 1 28.58 198zm-12.36 64.76a64.2 64.2 0 0 1 -3.74 -30.52c18.16 4.98 23.28 -8.4 66.7 -23.32A79.4 79.4 0 0 1 111.04 206a41.46 41.46 0 0 1 8.78 15.4c-19.12 -9.4 -86.48 86.6 -103.6 41.36zm139.16 20.26a6.32 6.32 0 0 0 4.86 -2.46c0.7 -1.3 9.54 -12.58 18.22 -9.1 -8.54 1.34 -10.88 5.5 -11.08 5.62a0.22 0.22 0 0 0 0.38 0.22c0.2 -0.1 2.7 -4.3 11.64 -5.26 3.08 -0.34 7.38 -0.22 6.4 2.7a23.4 23.4 0 0 0 -13.34 2 0.52 0.52 0 0 0 0.4 0.96c0.2 0 9.42 -3.56 14.44 -1.36 0.62 0.28 1.06 0.58 1.16 1s-2.28 1.34 -2.98 1.52c-6.88 1.74 -10.28 0.9 -12.5 4 -0.78 1.06 -1.9 3.76 -0.6 3.56s17.62 -5.94 16.7 -2.42c-0.88 4 -24 10.36 -28 11.4 -1.76 -3.94 -3.5 -7.78 -5.7 -12.38zm96 -15.5 5.42 0.46 -2.84 2.8 -6.16 -0.66c0.34 -0.34 2 -2 2.52 -2.68h1.04zm23.16 28.62 0.5 -0.44a41.88 41.88 0 0 0 5.82 0.62l-3.8 3.48 -3.8 -0.56c2.3 -0.48 3.02 -1.72 1.22 -3.1zm-1.72 -1.78c1.78 -0.7 3.36 -2 2.18 -3.4l3.5 0.48 -3.16 3.22c-0.7 -0.1 -1.92 -0.26 -2.58 -0.3zm1.6 1.24 -0.26 0.26a6.74 6.74 0 0 0 -0.68 -0.42zm-5.7 -7.6c1.06 -0.98 2.6 -2.4 4 -3.66l5.56 0.64c-1.54 1.7 -3.32 3.72 -4.3 4.84 -1.24 -0.14 -2.42 -0.3 -5.12 -0.48a0.8 0.8 0 0 0 -0.14 -1.34zM174 283.34a7 7 0 0 1 4.96 -2.18l2 0.34a22 22 0 0 0 -2.56 2l-1.26 0.36a8.46 8.46 0 0 0 -3.14 -0.52zm1.18 1.14 -2 0.62a6.32 6.32 0 0 1 0.44 -1.06 5.68 5.68 0 0 0 1.46 0.44zm5.38 -3.6c0.6 0 1.2 -0.2 1.8 -0.3l-0.66 0.46zm2 0.88 2.22 0.36a39.14 39.14 0 0 0 -3.86 0.8c0.32 -0.3 1.08 -0.92 1.5 -1.16zm0.7 -0.52c0.2 -0.18 0.7 -0.62 1.1 -1.02a13.82 13.82 0 0 0 4.44 -1.46l5.06 0.8 -3.16 2.66zm3.5 -8.1 5.32 0.74c-0.7 0.52 -2.12 1.64 -2.94 2.28a5.1 5.1 0 0 0 -2.36 -1.2 2.96 2.96 0 0 0 -0.16 -1.82zm2.9 4a2 2 0 0 0 -0.22 -0.52l4 -2.5 6.24 0.86c-2.18 1.72 -3.3 2.62 -5.06 4l-5.28 -0.62a1.36 1.36 0 0 0 0.18 -1.28zm55.62 2.7 -6 -0.78 3.3 -3.3 6 0.72zm4.54 -3.2 5.8 0.68 -3.22 3.42 -5.78 -0.74zm-24.46 6.44 -6.38 -0.88 4.52 -4 6.12 0.78zm5.64 -4 5.84 0.74c-1.86 1.84 -3.54 3.56 -4.22 4.24l-6 -0.84zm-13.48 2.92 -6.68 -0.9 4.78 -4 6.32 0.8zm-8 -1.08 -6 -0.76 4.84 -4 5.76 0.76zm-7.3 -0.94 -6.44 -0.8c1.3 -0.96 4 -3.1 5.26 -4l6 0.82zm0.42 0.98 5.86 0.84c-0.3 0.26 -0.46 0.38 -2.92 2.58l-6.14 -0.9zm7.18 1.04 6.74 0.94 -2.76 2.64 -7.14 -1.06c1.02 -0.88 2.02 -1.7 3.1 -2.52zm8 1.12 6.46 0.9c-0.2 0.2 -0.86 0.84 -2.68 2.72l-6.78 -1zm7.72 1.08 6 0.82 -2.7 2.82 -6.28 -0.94zm7.28 0.98 6.52 0.86c-0.2 0.2 -2.32 2.58 -2.72 3.04 -4.62 -0.76 -5.72 -0.92 -6.76 -1.08zm0.96 -0.92c2 -2 3.22 -3.16 4.32 -4.24h0.84l5.32 0.68 -4 4.36zm4 -5.38 -5.82 -0.74 3.08 -2.98 0.26 -0.26 5.8 0.68c-1.1 1.04 -2.32 2.14 -3.42 3.26zm-7.22 -0.92 -6 -0.76c3.88 -3.52 3.1 -2.82 3.48 -3.18l6 0.72zm-7.5 -0.94 -6.28 -0.78 3.7 -3.12 6 0.74c-1.16 0.98 -2.34 2.14 -3.52 3.12zm-7.86 -1.02 -5.82 -0.7 3.76 -3.12 5.8 0.7zm-7.3 -0.88 -6 -0.7 4 -3.16 5.82 0.74zm-7.58 -0.88 -6.32 -0.72c1.26 -0.84 3.34 -2.3 4.58 -3.16l5.76 0.74zm-5.4 5.48 6.34 0.98c-0.44 0.34 -2.26 2 -2.96 2.56l-6.94 -0.96zm9.44 5.5h0.12l-2.48 2.36c-2.46 -0.36 -4.72 -0.66 -6.68 -0.92l3.06 -2.36zm1.08 0.16 7.32 1.08 -2.4 2.34 -7.82 -1.16zm8.24 1.22 6.94 1.02c-1.1 1.12 -2 2 -2.3 2.4l-7.34 -1.12zm7.84 1.16 6.46 0.94c-1.12 1.16 -2 2 -2.32 2.46l-6.74 -1.06c0.56 -0.46 1.46 -1.28 2.6 -2.32zm7.36 1.06 7 0.96 -2.34 2.66c-2.98 -0.52 -4.98 -0.82 -7.28 -1.2zm7.88 1.08 6.38 0.84 -2.52 2.92 -6.54 -1.12zm0.76 -0.74c1.9 -1.88 2.68 -2.68 3 -3.02l6 0.74c-0.5 0.54 -2 2.26 -2.92 3.3zm3.82 -3.86 4.22 -4.4 5.8 0.74 -4.16 4.54zm11.36 -3.5 5.12 0.64c-1.16 1.24 -1.86 2 -4.32 4.72l-5.1 -0.78zm0.9 -0.96c1.86 -2 3 -3.24 3.18 -3.46l5.22 0.62c-1.02 1.04 -2.7 2.8 -3.36 3.5zm9.84 -2.68 5.8 0.66c-0.72 0.76 -2.64 2.84 -3.32 3.62l-6 -0.76zm7.14 0.82 5.24 0.58c-1.02 1.04 -3.32 3.42 -3.6 3.74l-5.12 -0.7c0.9 -0.94 2.62 -2.6 3.48 -3.6zm6.62 0.72 5.3 0.58c-1.64 1.72 -3.18 3.38 -3.68 4l-5.38 -0.74zm6.66 0.72 5.36 0.58 -4.24 4 -4.98 -0.6c0.38 -0.4 2.98 -3.02 3.86 -3.96zm0.62 -0.66c1.12 -1.18 3.06 -3.22 4.12 -4.44l6 0.58c-1.84 1.64 -3.58 3.3 -4.9 4.54zm-1.32 -0.16 -5.2 -0.68c0.92 -0.92 3.2 -3.26 4 -4.22l5.34 0.52c-0.12 0.22 -1.46 1.54 -4.14 4.4zm-6.56 -0.84 -5.2 -0.66c1.26 -1.36 2.58 -2.76 3.74 -4l5.62 0.56c-1.52 1.44 -3.18 3.14 -4.16 4.12zM270 278l-5.72 -0.7c0.94 -1 2 -2 2.78 -2.96l0.88 -0.96 5.88 0.6c-1.3 1.36 -1.12 1.16 -3.82 4.02zm-3.64 -4.34c-1.04 1.02 -2.42 2.44 -3.42 3.48l-5.32 -0.64c0.92 -1.02 2 -2.3 3.4 -3.82l5.74 0.58c-0.08 0.08 -0.22 0.2 -0.34 0.34zm-10 2.68 -5.8 -0.68c1.18 -1.26 2.18 -2.36 3.4 -3.72l6 0.62c-0.88 0.92 -2.18 2.24 -3.58 3.72zm-7.1 -0.84 -6 -0.72c1.14 -1.14 2.36 -2.42 3.48 -3.6l6.12 0.64c-1.74 1.72 -2.36 2.38 -3.58 3.62zm-7.3 -0.86 -5.76 -0.64c1.44 -1.42 2 -2 3.5 -3.52l6 0.62c-1.82 1.62 -2.82 2.6 -3.7 3.48zm-7.12 -0.84 -6 -0.7 3.62 -3.44 6 0.66c-1.66 1.68 -1.9 1.8 -3.6 3.42zm-7.34 -0.86 -6 -0.72c1.18 -1 2.22 -2 3.8 -3.34l6.14 0.66c-1.8 1.46 -2.76 2.3 -3.92 3.34zM220 272l-5.88 -0.66c1.36 -1.16 2 -1.68 3.82 -3.32l6.14 0.68c-1.8 1.46 -3 2.44 -4.08 3.3zm-7.3 -0.82 -6 -0.66c1.14 -0.9 2.14 -1.7 4 -3.3l6 0.68c-2.28 1.9 -2.36 1.96 -3.96 3.28zm-7.4 -0.84 -5.8 -0.62c3.08 -2.18 3.82 -2.76 4.48 -3.28l5.64 0.66c-2.52 1.86 -2.5 1.88 -4.28 3.24zm-7.44 -0.8 -5.58 -0.6c1.44 -0.94 3.58 -2.36 4.86 -3.28l5.42 0.62c-1.42 0.96 -4.46 3.12 -4.56 3.26zm-0.88 0.62c-1.22 0.88 -3.22 2.3 -4.42 3.2l-6.22 -0.72c2.86 -1.6 4 -2.38 5.2 -3.1zM190 283.28l0.3 -0.22 6.96 1.1 -2.7 2.42 -5.6 -0.74a2.62 2.62 0 0 0 1.04 -2.56zm53.76 11.44a41.78 41.78 0 0 0 -2.98 2.96c-15.2 -2.72 -40.38 -6.24 -58 -8.46a25.68 25.68 0 0 0 5.64 -2.98c20.68 3.76 41.24 6.7 55.38 8.48zm-2.64 -0.94 2.88 -2.9 4 0.52a36.62 36.62 0 0 0 -3.76 2.94zm3.42 -3.42 3.2 -3.3 5.28 0.64 -1.3 1.48a26.4 26.4 0 0 0 -3.22 1.84zm9.28 -2.58 0.98 0.12c-0.62 0.2 -1.22 0.44 -1.82 0.7 0.28 -0.24 0.58 -0.5 0.88 -0.82zm0.5 -0.46c2 -2 3.34 -3.26 4.76 -4.7l6 0.74c-0.56 0.64 -1.72 2 -2.96 3.46a20.22 20.22 0 0 0 -6.26 0.74zm11.88 -3.82 5.24 0.62 -3.22 3.56a26 26 0 0 0 -5.46 -0.82c1.04 -0.86 2.56 -2.44 3.48 -3.36zm13.2 1.54 4.96 0.58c-1.08 1.04 -3.54 3.42 -5 4.88 -1.34 -0.2 -3.5 -0.5 -4.82 -0.66 1.72 -1.64 3.26 -3.14 4.9 -4.8zm-3.4 9.72 3.52 -3.16c1 0.12 2.76 0.34 5.8 0.52l-4 3.72a36.34 36.34 0 0 0 -5.32 -1.08zm4.52 -4c1.08 -0.98 4.16 -3.88 5.24 -4.9l5.76 0.66 -5.72 5.24c-0.86 -0.28 -3.8 -0.86 -5.24 -1.08zm5.78 -5.42 4.28 -4 6 0.62L292 286zm4.82 -4.62c0.28 -0.24 2.44 -2.34 4.7 -4.6l6.42 0.6 -5.24 4.76zm5.24 -5.16 3.78 -3.84 6.94 0.58 -4.4 4zm-1.08 -0.12 -6 -0.7c0.86 -0.96 2.18 -2.48 3.2 -3.66l7.12 0.58c-0.28 0.14 -2.24 1.86 -4.28 3.7zm-7.22 -0.84 -5.32 -0.6c0.8 -0.86 2.46 -2.72 3.12 -3.48l6 0.5zm-6.48 -0.74 -5.7 -0.64c0.66 -0.74 2 -2.22 2.82 -3.3l6.52 0.56c-0.28 0.2 -2.64 2.38 -3.6 3.3zm-6.84 -0.76 -6 -0.66c0.6 -0.66 1.86 -2 2.78 -3.12l6.44 0.56c-0.34 0.34 -2.16 2.12 -3.18 3.14zm-6.98 -0.76 -5.86 -0.64c0.66 -0.76 1.46 -1.66 2.58 -2.98l6.48 0.56c-0.96 0.88 -2.38 2.22 -3.16 2.98zm-6.8 -0.74 -6.14 -0.64 2.52 -2.84 5.72 0.48h0.82c-0.4 0.42 -2.54 2.58 -2.88 2.92zm-14.24 -1.5 -6 -0.64c0.3 -0.3 0.88 -0.88 2.5 -2.56l6.48 0.56zm-7.08 -0.74 -6.16 -0.64 2.5 -2.42 6.48 0.54zm-7.16 -0.74 -6.22 -0.64 0.32 -0.28 2.26 -2 6.46 0.56zm-6.34 -1.44 -0.9 0.7 -6.32 -0.64 2.48 -2.22 6.74 0.6c-0.46 0.38 -1.14 0.82 -1.96 1.48zm-8.26 0 -6.14 -0.6c0.22 -0.16 1.52 -1.26 2.54 -2.14l6.42 0.56zm-7.24 -0.7 -5.8 -0.56 2.64 -2 6 0.54c-0.82 0.44 -2.6 1.74 -2.8 1.9zm-7.14 -0.68 -5.5 -0.66 2.7 -2 6.14 0.56c-0.52 0.3 -2.38 1.36 -3.3 1.98zm-7.18 -0.68L192 264.6l3.52 -2 4.14 0.36c-1.04 0.7 -2.12 1.3 -3.3 2.04zm-0.74 0.48c-1.56 0.98 -3.8 2.48 -4.94 3.28l-5.12 -0.54 5.82 -3.24zM190 269.24c-1.36 0.96 -2.64 2 -4 2.98 -1.36 -1.22 -4 -1.14 -6 -0.98l4.8 -2.66zm-20.44 44c-2.58 -6.14 -5.24 -10.66 -8 -16.86a110.62 110.62 0 0 0 20.44 -6.8c17.72 3.08 40.32 6.5 58.22 8.74l-1.26 1.44c-2.14 -0.66 -3.54 -0.96 -3.76 -1s-58.82 12.18 -65.68 14.44zm55.48 -11.02 10.8 -2.22 0.8 0.16a68.52 68.52 0 0 0 -10.88 2.24zm2 0.54a68 68 0 0 0 11.16 -2.22c0.72 0.22 1.4 0.44 2 0.7a49.58 49.58 0 0 0 -10.78 2.38c-0.88 -0.4 -1.7 -0.66 -2.44 -0.9zm3.4 1.28c2.22 -0.16 10.26 -2.14 10.28 -2.6a16 16 0 0 1 2.34 1.2 49.48 49.48 0 0 0 -9.52 3.06 24.72 24.72 0 0 0 -3.16 -1.7zm6.86 4.64a20.66 20.66 0 0 0 -3.1 -2.56 50.22 50.22 0 0 0 9.5 -3.06 14.26 14.26 0 0 1 2.38 2c-2.44 0.62 -9.06 2.94 -8.84 3.58zm0.14 0.12a34.82 34.82 0 0 0 9.08 -3.24 14.86 14.86 0 0 1 2 2.82 31.38 31.38 0 0 0 -8.6 3.52 24 24 0 0 0 -2.54 -3.14zm2.6 3.52a32.22 32.22 0 0 0 8.56 -3.58c0.24 0.54 0.46 1.06 0.64 1.56 -4.42 1.24 -11 5.18 -6.66 3.78a33.32 33.32 0 0 0 6.84 -3.22q0.2 0.72 0.36 1.38a37.54 37.54 0 0 0 -8.3 4.16 17.72 17.72 0 0 0 -1.48 -4.12zm9.84 0.52a12.8 12.8 0 0 1 0.18 1.52 38 38 0 0 0 -8.34 4.38c0 -0.54 0 -0.98 -0.14 -1.84a37.58 37.58 0 0 0 8.24 -4.1zm0.22 2.8c-0.8 0.54 -3.86 2.64 -8.54 5.66 0 -0.66 0.14 -1.32 0.16 -2a36.78 36.78 0 0 0 8.38 -4.42zm0.82 -2.84a15.08 15.08 0 0 0 -10.88 -12.66c6 -6.86 13.66 -13.14 22.7 -12.34a21.76 21.76 0 0 1 5.3 0.88 36.16 36.16 0 0 1 -7.62 1.8 32.9 32.9 0 0 0 -7.46 2.14 0.54 0.54 0 0 0 0.36 1c5.2 -1.1 17.38 -4.72 20.64 -2.14 2.32 1.88 -8 3.36 -9.14 3.66 -2 0.46 -7.28 2.24 -6.34 3.46 0.6 0.76 1.24 -0.74 6.16 -2.32 2.94 -0.68 5.66 -1.42 8.16 0 0.48 0.26 2 1.18 1.74 1.58a8.16 8.16 0 0 1 -4.42 0.84 5.42 5.42 0 0 0 -3.18 0.64c-7.98 4.04 -6.8 11.58 -16.08 13.42zm67.7 -38.32 -4.96 1.72c-0.58 -3.14 -0.36 -3.46 -0.84 -3.64s1.6 -2.48 -34 30.76l-13.88 -1.72c3.6 -2.84 4 -2 6.68 -2.12 5.4 0.86 5.5 1.02 5.7 0.84 31.08 -27.82 32.82 -28.84 31.1 -28.98 -0.22 0 -112.44 -9.66 -113 -9.34l-16.2 9.3a11.86 11.86 0 0 0 -6.5 -1.28l21.66 -12.38c20.32 1.5 113.3 8 122 10l0.5 0.14c1.66 1.38 1.86 4.54 1.68 6.66z" stroke-width="1"></path><path d="M115.66 155.4c0.44 -1.34 0 -2 0 -2s-7.24 0 -10 2.28a14 14 0 0 0 -2.22 5.12l3.52 -3.28c2.06 -1.92 8.7 -2.12 8.7 -2.12z" stroke-width="1"></path></g></svg>