<svg xmlns="http://www.w3.org/2000/svg" xmlns:xlink="http://www.w3.org/1999/xlink" width="500" zoomAndPan="magnify" viewBox="0 0 375 374.999991" height="500" preserveAspectRatio="xMidYMid meet" version="1.0"><defs><g/><clipPath id="9f62344717"><path d="M 153.09375 165.613281 L 289.710938 165.613281 L 289.710938 209.386719 L 153.09375 209.386719 Z M 153.09375 165.613281 " clip-rule="nonzero"/></clipPath><clipPath id="ad0c0418f6"><path d="M 185.070312 165.613281 L 283.675781 165.613281 C 285.828125 165.613281 287.8125 166.765625 288.878906 168.636719 C 289.941406 170.503906 289.921875 172.796875 288.828125 174.648438 L 273.605469 200.351562 C 270.289062 205.953125 264.265625 209.386719 257.757812 209.386719 L 159.148438 209.386719 C 157 209.386719 155.011719 208.234375 153.949219 206.363281 C 152.882812 204.496094 152.902344 202.203125 154 200.351562 L 169.21875 174.648438 C 172.535156 169.046875 178.5625 165.613281 185.070312 165.613281 Z M 185.070312 165.613281 " clip-rule="nonzero"/></clipPath></defs><g clip-path="url(#9f62344717)"><g clip-path="url(#ad0c0418f6)"><path fill="#e60000" d="M 148.648438 165.613281 L 294.15625 165.613281 L 294.15625 209.386719 L 148.648438 209.386719 Z M 148.648438 165.613281 " fill-opacity="1" fill-rule="nonzero"/></g></g><g fill="#0866ff" fill-opacity="1"><g transform="translate(72.023781, 201.677315)"><g><path d="M 25.796875 -25.796875 L 25.796875 -10.84375 C 25.796875 -7.425781 24.738281 -4.710938 22.625 -2.703125 C 20.519531 -0.703125 17.660156 0.296875 14.046875 0.296875 C 10.410156 0.296875 7.515625 -0.703125 5.359375 -2.703125 C 3.210938 -4.710938 2.140625 -7.425781 2.140625 -10.84375 L 2.140625 -25.796875 L 8.703125 -25.796875 L 8.703125 -10.84375 C 8.703125 -9.113281 9.195312 -7.738281 10.1875 -6.71875 C 11.1875 -5.707031 12.484375 -5.203125 14.078125 -5.203125 C 15.648438 -5.203125 16.910156 -5.703125 17.859375 -6.703125 C 18.804688 -7.710938 19.28125 -9.09375 19.28125 -10.84375 L 19.28125 -25.796875 Z M 25.796875 -25.796875 "/></g></g></g><g fill="#0866ff" fill-opacity="1"><g transform="translate(97.858914, 201.677315)"><g><path d="M 22.296875 -20.53125 L 14.515625 -20.53125 L 14.515625 0 L 7.96875 0 L 7.96875 -20.53125 L 0.265625 -20.53125 L 0.265625 -25.84375 L 22.296875 -25.84375 Z M 22.296875 -20.53125 "/></g></g></g><g fill="#0866ff" fill-opacity="1"><g transform="translate(118.276288, 201.677315)"><g><path d="M 26.390625 0 L 19.828125 0 L 19.828125 -10.03125 L 9.140625 -10.03125 L 9.140625 0 L 2.578125 0 L 2.578125 -25.796875 L 9.140625 -25.796875 L 9.140625 -15.1875 L 19.828125 -15.1875 L 19.828125 -25.796875 L 26.390625 -25.796875 Z M 26.390625 0 "/></g></g></g><g fill="#0866ff" fill-opacity="1"><g transform="translate(145.14338, 201.677315)"><g><path d="M 30.921875 0 L 25.140625 0 L 25.09375 -16.765625 L 18.90625 -2.578125 L 14.640625 -2.578125 L 8.4375 -16.765625 L 8.4375 0 L 2.578125 0 L 2.578125 -25.84375 L 9.765625 -25.84375 L 16.765625 -10.46875 L 23.78125 -25.84375 L 30.921875 -25.84375 Z M 30.921875 0 "/></g></g></g><g fill="#ffffff" fill-opacity="1"><g transform="translate(176.934266, 201.677315)"><g><path d="M 19.71875 -4.75 L 8.4375 -4.75 L 6.5625 0 L -0.1875 0 L 10.953125 -25.796875 L 17.6875 -25.796875 L 28.5625 0 L 21.5625 0 Z M 17.796875 -9.734375 L 14.109375 -19.28125 L 10.359375 -9.734375 Z M 17.796875 -9.734375 "/></g></g></g><g fill="#ffffff" fill-opacity="1"><g transform="translate(203.211668, 201.677315)"><g><path d="M 9.65625 -20.15625 C 12.582031 -20.15625 15.3125 -19.40625 17.84375 -17.90625 L 15.671875 -13.78125 C 13.210938 -15.113281 11.125 -15.78125 9.40625 -15.78125 C 8.101562 -15.78125 7.453125 -15.320312 7.453125 -14.40625 C 7.453125 -13.914062 7.804688 -13.503906 8.515625 -13.171875 C 9.222656 -12.835938 10.09375 -12.535156 11.125 -12.265625 C 12.15625 -12.003906 13.179688 -11.671875 14.203125 -11.265625 C 15.222656 -10.859375 16.085938 -10.210938 16.796875 -9.328125 C 17.515625 -8.441406 17.875 -7.359375 17.875 -6.078125 C 17.875 -4.085938 17.097656 -2.53125 15.546875 -1.40625 C 14.003906 -0.289062 11.992188 0.265625 9.515625 0.265625 C 5.992188 0.265625 3.019531 -0.671875 0.59375 -2.546875 L 2.609375 -6.59375 C 4.953125 -4.945312 7.300781 -4.125 9.65625 -4.125 C 11.101562 -4.125 11.828125 -4.578125 11.828125 -5.484375 C 11.828125 -6.003906 11.476562 -6.4375 10.78125 -6.78125 C 10.082031 -7.125 9.226562 -7.429688 8.21875 -7.703125 C 7.207031 -7.972656 6.195312 -8.3125 5.1875 -8.71875 C 4.1875 -9.125 3.332031 -9.753906 2.625 -10.609375 C 1.925781 -11.472656 1.578125 -12.554688 1.578125 -13.859375 C 1.578125 -15.847656 2.328125 -17.394531 3.828125 -18.5 C 5.328125 -19.601562 7.269531 -20.15625 9.65625 -20.15625 Z M 9.65625 -20.15625 "/></g></g></g><g fill="#ffffff" fill-opacity="1"><g transform="translate(220.017195, 201.677315)"><g><path d="M 9.65625 -20.15625 C 12.582031 -20.15625 15.3125 -19.40625 17.84375 -17.90625 L 15.671875 -13.78125 C 13.210938 -15.113281 11.125 -15.78125 9.40625 -15.78125 C 8.101562 -15.78125 7.453125 -15.320312 7.453125 -14.40625 C 7.453125 -13.914062 7.804688 -13.503906 8.515625 -13.171875 C 9.222656 -12.835938 10.09375 -12.535156 11.125 -12.265625 C 12.15625 -12.003906 13.179688 -11.671875 14.203125 -11.265625 C 15.222656 -10.859375 16.085938 -10.210938 16.796875 -9.328125 C 17.515625 -8.441406 17.875 -7.359375 17.875 -6.078125 C 17.875 -4.085938 17.097656 -2.53125 15.546875 -1.40625 C 14.003906 -0.289062 11.992188 0.265625 9.515625 0.265625 C 5.992188 0.265625 3.019531 -0.671875 0.59375 -2.546875 L 2.609375 -6.59375 C 4.953125 -4.945312 7.300781 -4.125 9.65625 -4.125 C 11.101562 -4.125 11.828125 -4.578125 11.828125 -5.484375 C 11.828125 -6.003906 11.476562 -6.4375 10.78125 -6.78125 C 10.082031 -7.125 9.226562 -7.429688 8.21875 -7.703125 C 7.207031 -7.972656 6.195312 -8.3125 5.1875 -8.71875 C 4.1875 -9.125 3.332031 -9.753906 2.625 -10.609375 C 1.925781 -11.472656 1.578125 -12.554688 1.578125 -13.859375 C 1.578125 -15.847656 2.328125 -17.394531 3.828125 -18.5 C 5.328125 -19.601562 7.269531 -20.15625 9.65625 -20.15625 Z M 9.65625 -20.15625 "/></g></g></g><g fill="#ffffff" fill-opacity="1"><g transform="translate(236.822723, 201.677315)"><g><path d="M 3.328125 -28 C 3.960938 -28.625 4.769531 -28.9375 5.75 -28.9375 C 6.726562 -28.9375 7.53125 -28.625 8.15625 -28 C 8.789062 -27.375 9.109375 -26.566406 9.109375 -25.578125 C 9.109375 -24.597656 8.789062 -23.785156 8.15625 -23.140625 C 7.53125 -22.503906 6.726562 -22.1875 5.75 -22.1875 C 4.769531 -22.1875 3.960938 -22.503906 3.328125 -23.140625 C 2.703125 -23.785156 2.390625 -24.597656 2.390625 -25.578125 C 2.390625 -26.566406 2.703125 -27.375 3.328125 -28 Z M 8.890625 0 L 2.546875 0 L 2.546875 -19.859375 L 8.890625 -19.859375 Z M 8.890625 0 "/></g></g></g><g fill="#ffffff" fill-opacity="1"><g transform="translate(246.183446, 201.677315)"><g><path d="M 9.65625 -20.15625 C 12.582031 -20.15625 15.3125 -19.40625 17.84375 -17.90625 L 15.671875 -13.78125 C 13.210938 -15.113281 11.125 -15.78125 9.40625 -15.78125 C 8.101562 -15.78125 7.453125 -15.320312 7.453125 -14.40625 C 7.453125 -13.914062 7.804688 -13.503906 8.515625 -13.171875 C 9.222656 -12.835938 10.09375 -12.535156 11.125 -12.265625 C 12.15625 -12.003906 13.179688 -11.671875 14.203125 -11.265625 C 15.222656 -10.859375 16.085938 -10.210938 16.796875 -9.328125 C 17.515625 -8.441406 17.875 -7.359375 17.875 -6.078125 C 17.875 -4.085938 17.097656 -2.53125 15.546875 -1.40625 C 14.003906 -0.289062 11.992188 0.265625 9.515625 0.265625 C 5.992188 0.265625 3.019531 -0.671875 0.59375 -2.546875 L 2.609375 -6.59375 C 4.953125 -4.945312 7.300781 -4.125 9.65625 -4.125 C 11.101562 -4.125 11.828125 -4.578125 11.828125 -5.484375 C 11.828125 -6.003906 11.476562 -6.4375 10.78125 -6.78125 C 10.082031 -7.125 9.226562 -7.429688 8.21875 -7.703125 C 7.207031 -7.972656 6.195312 -8.3125 5.1875 -8.71875 C 4.1875 -9.125 3.332031 -9.753906 2.625 -10.609375 C 1.925781 -11.472656 1.578125 -12.554688 1.578125 -13.859375 C 1.578125 -15.847656 2.328125 -17.394531 3.828125 -18.5 C 5.328125 -19.601562 7.269531 -20.15625 9.65625 -20.15625 Z M 9.65625 -20.15625 "/></g></g></g><g fill="#ffffff" fill-opacity="1"><g transform="translate(262.988974, 201.677315)"><g><path d="M 14.109375 -5.484375 L 15.375 -1.0625 C 13.820312 -0.15625 12.050781 0.296875 10.0625 0.296875 C 8.09375 0.296875 6.5 -0.25 5.28125 -1.34375 C 4.070312 -2.4375 3.46875 -3.992188 3.46875 -6.015625 L 3.46875 -14.78125 L 0.703125 -14.78125 L 0.703125 -18.953125 L 3.46875 -18.953125 L 3.46875 -24.46875 L 9.796875 -24.46875 L 9.796875 -18.984375 L 15 -18.984375 L 15 -14.78125 L 9.796875 -14.78125 L 9.796875 -7 C 9.796875 -6.238281 9.945312 -5.679688 10.25 -5.328125 C 10.5625 -4.972656 11.023438 -4.804688 11.640625 -4.828125 C 12.234375 -4.828125 13.054688 -5.046875 14.109375 -5.484375 Z M 14.109375 -5.484375 "/></g></g></g></svg>