<svg xmlns="http://www.w3.org/2000/svg" viewBox="0 0 400 400" id="About-Our-Team-4--Streamline-Milano" height="400" width="400"><desc>About Our Team 4 Streamline Illustration: https://streamlinehq.com</desc><g><path d="M211.448 78.692a2.78 2.78 0 0 0 3.334 -0.772c0.14 -0.2 -0.052 -1.414 -2.466 -0.634a2.02 2.02 0 0 0 -0.96 0.546 0.61 0.61 0 0 0 0.092 0.86Z" fill="#000000" stroke-width="1"></path><path d="M200.346 76.2a4.116 4.116 0 0 0 1.636 0.48c0.532 0.058 0.986 -0.422 0.656 -0.8a4.284 4.284 0 0 0 -1.812 -1 1.492 1.492 0 0 0 -0.916 0c-0.558 0.306 -0.156 1.054 0.436 1.32Z" fill="#000000" stroke-width="1"></path><path d="M201.84 80.146c-0.8 0.822 -1.62 1.674 -2.338 2.576a2.04 2.04 0 0 0 -0.422 2.228c0.834 1.844 4.68 2.424 5.618 2.446a0.884 0.884 0 0 0 0.888 -0.862 0.87 0.87 0 0 0 -0.82 -0.906 10.546 10.546 0 0 1 -3.51 -0.934c-0.4 -0.188 -0.566 -0.382 -0.6 -0.574a8.338 8.338 0 0 1 1.334 -1.512c3.904 -4.236 4.318 -4.6 5.648 -6.312a0.746 0.746 0 0 0 -0.308 -1.122 0.856 0.856 0 0 0 -0.824 0.176c-1.906 1.734 -2.906 2.974 -4.666 4.796Z" fill="#000000" stroke-width="1"></path><path d="M211.612 74.702a0.69 0.69 0 0 0 0.63 0.11 4.874 4.874 0 0 1 3.4 0.8c1.12 0.85 2.06 -0.144 1.518 -0.822a4.836 4.836 0 0 0 -5.556 -1.386 0.862 0.862 0 0 0 0.008 1.298Z" fill="#000000" stroke-width="1"></path><path d="M199.076 73.526a0.81 0.81 0 0 0 0.768 0.156c0.418 0 0.482 -0.294 1.082 -0.646a2.744 2.744 0 0 1 2.426 -0.028c0.834 0.384 1.44 -0.81 0.736 -1.4 -2.556 -2.11 -6.506 0.73 -5.012 1.918Z" fill="#000000" stroke-width="1"></path><path d="M202.714 88.614c-0.916 -0.2 -1.184 1.168 -0.372 1.434a15.22 15.22 0 0 0 8.768 0.218c-1.104 0.916 -3.298 2.442 -4.632 1.66a0.94 0.94 0 0 0 -1.232 0.266c-0.742 1 0.678 1.932 2 1.93a7.072 7.072 0 0 0 3.784 -1.444 14.032 14.032 0 0 0 4.152 -4.302 0.95 0.95 0 0 0 -1.266 -1.332 14.104 14.104 0 0 1 -5.42 1.884 17.4 17.4 0 0 1 -5.782 -0.314Z" fill="#000000" stroke-width="1"></path><path d="M103.526 61.266c1.064 0.816 1.532 -1.324 0.316 -2.872 -1.152 -1.466 -2.242 1.394 -0.316 2.872Z" fill="#000000" stroke-width="1"></path><path d="M114.662 55.692c-0.282 -0.428 -0.844 -0.19 -0.916 0.284a4.2 4.2 0 0 0 0.174 1.658c0.368 1.176 1.564 1.574 1.484 0a4.696 4.696 0 0 0 -0.742 -1.942Z" fill="#000000" stroke-width="1"></path><path d="M100.85 56.944c0.876 -1.128 0.7 -1.122 1.762 -1.476a1.066 1.066 0 0 0 0.692 -1.314 1.052 1.052 0 0 0 -1.32 -0.716c-1.4 0.588 -3.102 2 -2.412 3.272a0.988 0.988 0 0 0 1.278 0.234Z" fill="#000000" stroke-width="1"></path><path d="M113.214 53.4c1.356 -0.032 1.2 0.826 2.05 0.878a1.034 1.034 0 0 0 0.8 -1.74c-1.54 -1.636 -4.1 -1.326 -4 0.042a0.92 0.92 0 0 0 1.15 0.82Z" fill="#000000" stroke-width="1"></path><path d="m113.964 63.6 -1.8 1.138a0.984 0.984 0 0 0 0.076 1.73 0.92 0.92 0 0 0 0.93 -0.05c2.314 -1.528 3.092 -1.8 3.122 -2.614 0.026 -0.7 -0.568 -1.188 -1 -1.544 -0.8 -0.654 -2.444 -2.62 -4.616 -4.34a0.8 0.8 0 0 0 -1.23 0.836c0.098 0.528 0.02 0.358 4.518 4.844Z" fill="#000000" stroke-width="1"></path><path d="M105.292 69.298a7.434 7.434 0 0 0 2.518 4.96 3.6 3.6 0 0 0 3.768 1.024 6.508 6.508 0 0 0 2.644 -2.682 0.94 0.94 0 1 0 -1.6 -0.972 4.84 4.84 0 0 1 -1.896 1.906c-0.6 0.328 -1.524 -0.454 -1.952 -0.944a5.852 5.852 0 0 1 -1.574 -2.9 10.438 10.438 0 0 0 7.346 0.262c1.068 -0.364 0.328 -1.942 -0.568 -1.426a9.8 9.8 0 0 1 -6.2 -0.622 0.928 0.928 0 0 0 -0.734 -1.636 10.266 10.266 0 0 0 -2.334 1.552 0.8 0.8 0 0 0 0.582 1.478Z" fill="#000000" stroke-width="1"></path><path d="M303.2 72.01c0.958 2.116 3.262 1.43 2.934 -0.266a3.05 3.05 0 0 0 -0.472 -1.818 2.788 2.788 0 0 0 0.952 -0.8 0.926 0.926 0 0 0 -0.248 -1.22 0.968 0.968 0 0 0 -0.874 0c-0.484 0.284 -0.2 0.326 -1.222 0.836 -1.65 -0.058 -1.728 2.084 -1.07 3.268Z" fill="#000000" stroke-width="1"></path><path d="M315.666 66.222a0.936 0.936 0 0 0 -0.782 0.214l-0.49 0.452c-1.014 -0.254 -1.6 0.23 -1.708 0.956a4.488 4.488 0 0 0 0.2 1.87c0.332 1.126 1.2 1.77 2.228 1.25a1.522 1.522 0 0 0 0.518 -1.47 3.186 3.186 0 0 0 -0.356 -1.32 1.756 1.756 0 0 0 0.876 -1.018 0.8 0.8 0 0 0 -0.486 -0.934Z" fill="#000000" stroke-width="1"></path><path d="M314.518 77.358c-0.512 0.668 -0.918 0.484 -2.236 1.024a1.09 1.09 0 0 0 -0.418 0.524 0.856 0.856 0 0 0 0.756 1.096 4.682 4.682 0 0 0 3.084 -1.4 2.662 2.662 0 0 0 0.2 -3.188 15.082 15.082 0 0 0 -2.232 -2.6 28.56 28.56 0 0 0 -2.438 -2.506c-0.654 -0.6 -1.772 0.344 -1.15 1.046 3.22 3.66 5.146 5.07 4.434 6.004Z" fill="#000000" stroke-width="1"></path><path d="M307.252 82.108c0.664 1 3.168 1.466 4.486 1.49a7.12 7.12 0 0 0 4.54 -1.482 0.752 0.752 0 0 0 0.014 -1.136c-0.744 -0.8 -1.786 0.886 -4.576 0.782a6.248 6.248 0 0 1 -2.878 -0.658c-1.532 -0.884 -2.368 0.532 -1.586 1.004Z" fill="#000000" stroke-width="1"></path><path d="M229.858 125.214a24.322 24.322 0 0 0 -11.756 -0.494 1 1 0 0 0 -0.824 0.766 21.082 21.082 0 0 0 -0.6 4.858 1 1 0 0 0 0.762 0.856 33.734 33.734 0 0 0 12.342 0.38 1 1 0 0 0 0.814 -1l-0.074 -4.444a1 1 0 0 0 -0.664 -0.922Zm-11.2 4.2a25.514 25.514 0 0 1 0.428 -2.822 23 23 0 0 1 9.44 0.28l0.048 2.87a33.274 33.274 0 0 1 -9.918 -0.322Z" fill="#000000" stroke-width="1"></path><path d="M324.958 115.756c0 0.294 0 0.326 1.8 4.014a1 1 0 0 0 0.9 0.562c0.338 0 -0.31 0.228 8.886 -4.012a1 1 0 0 0 0.46 -1.384l-1.882 -3.48a1 1 0 0 0 -1.3 -0.432l-8.278 3.824a1 1 0 0 0 -0.586 0.908Zm8.846 -2.522 0.928 1.718 -6.6 3.06c-0.318 -0.656 -0.622 -1.286 -0.846 -1.764Z" fill="#000000" stroke-width="1"></path><path d="M390.2 91.412c1.482 -1.43 0.6 -3.98 -2.266 -4.116a2.148 2.148 0 0 0 -2.488 -2.31 10.47 10.47 0 0 0 -5.384 1.766c0.224 -1.588 -1.016 -2.87 -3.14 -2.222 -3.302 1 -5.76 6.978 -4.378 10.322 -4.8 11.468 -10.326 22.896 -15.434 33.88a157.152 157.152 0 0 0 -11.216 -21.978c-5.056 -8.068 -10.612 -12.674 -17.504 -14.498a47.554 47.554 0 0 0 -13.314 -1.2 8.496 8.496 0 0 0 -2.448 -1.662c6.276 -1.572 9.32 -7.72 9.124 -13.882a25.756 25.756 0 0 0 4.894 -5.674 13.696 13.696 0 0 0 1.096 -12.496 19.824 19.824 0 0 0 -5.59 -6c-4.454 -3.67 -8.302 -6.838 -14.186 -8.346a22.69 22.69 0 0 0 -26.32 13.754 0.734 0.734 0 0 0 -0.134 0.032 9.754 9.754 0 0 0 -7.188 4.044c-7.546 11.28 4.94 22.98 1.35 34.06l-0.104 0.052c-0.812 0.374 -0.114 2.544 1.664 1.45a5.2 5.2 0 0 1 -2.572 2.346 0.894 0.894 0 0 0 0.134 1.772c4.658 0 8.108 -2.518 0.056 1.414a128.6 128.6 0 0 0 -18.526 10.376 58.638 58.638 0 0 0 -10.948 -6.732 6.736 6.736 0 0 0 2.896 -4.314c0.466 -3.27 -1.754 -6.242 -3.724 -8.864a36.35 36.35 0 0 1 -5.188 -9.46 51.27 51.27 0 0 1 -1.958 -12.578c-0.132 -3.2 0.098 -6.164 -1.044 -8.45a19.6 19.6 0 0 0 -8.502 -8.502 28.148 28.148 0 0 0 -11.674 -3.096 21.712 21.712 0 0 0 -13.222 2.962 27.976 27.976 0 0 0 -8.762 11.622c-2.258 5.24 -2.784 10.668 -7.832 14.228a24.2 24.2 0 0 0 -5.4 3.162 5.346 5.346 0 0 0 1.236 8.382 5.3 5.3 0 0 0 -4.164 3.96 4.516 4.516 0 0 0 2.218 4.614c-2.986 0.53 -14.264 2.696 -16.96 3.18A70.446 70.446 0 0 0 124.8 81.052c-2.136 -0.4 -4.08 -0.65 -5.898 -0.878a29.898 29.898 0 0 0 -5.932 -0.226 6.784 6.784 0 0 0 -0.906 -0.734 13.238 13.238 0 0 0 9.94 -11.754 28.184 28.184 0 0 0 -0.416 -7.832 1.962 1.962 0 0 0 0.37 -2.4 2.732 2.732 0 0 0 0.958 -5 2.144 2.144 0 0 0 -0.712 -4.132 6.718 6.718 0 0 0 -0.03 -3.678 3.32 3.32 0 0 0 -2.158 -0.98 2.372 2.372 0 0 0 0.69 -2.168 1.676 1.676 0 0 0 -1.888 -1 2.58 2.58 0 0 0 -3.15 -3.324 2.358 2.358 0 0 0 -3.942 -2.546 3.076 3.076 0 0 0 -5.432 -1.53 3.738 3.738 0 0 0 -6.824 -0.844 3.368 3.368 0 0 0 -3.548 -1.306 3.422 3.422 0 0 0 -2.414 2.86 3.718 3.718 0 0 0 -5.87 3.22 3.158 3.158 0 0 0 -4.612 3.686 2.558 2.558 0 0 0 -2.454 4.084 2.296 2.296 0 0 0 -1.662 3.726 1.386 1.386 0 0 0 -0.884 0.8c-0.284 0.856 0.624 1.9 1.178 2.686a3.444 3.444 0 0 0 -1.2 5.61c-2.484 2.8 -1.814 7.268 1.854 7.988a3.736 3.736 0 0 0 5.016 4.708 3.484 3.484 0 0 0 2.572 1.294 4.512 4.512 0 0 0 2.642 0.818 4.692 4.692 0 0 0 1.834 -0.374c0.342 2.682 0.568 3.152 1.4 7.274a6.848 6.848 0 0 0 -1.724 2.848 0.69 0.69 0 0 0 -0.092 0.024c-10.704 3.2 -20.238 -0.56 -39.634 -1.82a126.236 126.236 0 0 0 -14.066 -0.112c-0.298 -0.676 1.23 -6.244 -1.826 -24.472a148.652 148.652 0 0 0 -5.306 -21.626 6.258 6.258 0 0 0 0.922 -2.162c0.788 -2.974 -0.572 -4.292 1.464 -7.564a2.232 2.232 0 0 0 -1.06 -3.468 5.938 5.938 0 0 0 -5.522 3.164 3.46 3.46 0 0 0 -6.038 1.498 3.024 3.024 0 0 0 -1.57 3.72c-2.614 0.484 -2.674 4.3 1.08 4.936a178.16 178.16 0 0 0 -6.362 26.846c-2.02 11.212 -4.188 24.638 0.382 34.95a19.048 19.048 0 0 0 8.63 7.856 70.878 70.878 0 0 0 11.6 4.4 256.47 256.47 0 0 0 36.06 7.924c0.314 10.24 1.97 40.736 2.246 50.77a12.464 12.464 0 0 0 0.776 4.982 8.98 8.98 0 0 0 1.226 1.8 31.904 31.904 0 0 0 -1.432 6.086c-10.444 42.86 -24.892 84.4 -39.27 126.384 -3.2 9.286 -6.386 19.856 -9.586 29.322 -0.126 0.372 -0.692 1.228 -2.618 4.488 -6.39 10.818 -7.888 11.386 -12.262 17.444 -2.214 3.038 0.41 6.032 3.878 5.468a15.4 15.4 0 0 0 4.764 -1.664 41 41 0 0 0 13.562 -9.046 1 1 0 0 0 1.112 0.488l5.756 -1.358a0.856 0.856 0 0 0 0.888 -0.786 30.888 30.888 0 0 0 0.366 -5.972 6.214 6.214 0 0 0 2.348 -0.032c24.67 -38.376 24.554 -49.166 70.07 -133.816 0.6 -1.174 2.886 -0.058 2.28 1.118l-14.224 27.506c-4.258 31.472 -6.2 76.658 -3.098 99.17l0.2 0c-0.552 1.728 0.56 8.6 1.69 12.05a1.048 1.048 0 0 0 0.98 0.724l6.912 0.132a1.038 1.038 0 0 0 1.024 -1.08c-0.04 -0.524 -0.056 -1.054 -0.052 -1.58a81.534 81.534 0 0 0 19.774 2.874 8.78 8.78 0 0 0 5.682 -1.34 2.05 2.05 0 0 0 0.75 -1.938c-0.454 -2.41 -5.428 -3.944 -7.274 -4.8a58 58 0 0 1 -10.31 -6.354 7.27 7.27 0 0 1 0.01 -4.672c14.814 -72.082 23.332 -111.484 28.354 -161.558a12.528 12.528 0 0 0 1.376 -1.418 7.74 7.74 0 0 0 0.918 -4.706c0 -11.6 -0.8 -25.268 -1.678 -33.816a86.05 86.05 0 0 0 9.092 0.084c2.578 1.896 10.64 6.6 13.42 8.222 0.342 2.05 0.764 4.08 1.26 6.058 2.042 13.22 -1.8 22.908 -4.774 33.494a4.516 4.516 0 0 0 0.318 4.128 17.85 17.85 0 0 0 2.2 2.068 335.05 335.05 0 0 0 -29.4 70.064 0.26 0.26 0 0 0 0.076 0.252c-1.39 3.656 -0.556 8.054 2.78 12.924 7.27 10.6 24.428 26.506 33.13 34.32 1.856 1.666 12.876 11.282 13.084 11.426a59.286 59.286 0 0 1 2.582 9.924 16.588 16.588 0 0 0 0.8 4.354c-0.122 1.106 -1.186 9.63 -1.642 12.784 -0.382 2.512 -0.966 5.186 -1.134 7.748 -0.228 1.462 -10.136 19.326 -10.252 19.526a18.11 18.11 0 0 0 -2.74 6.106c-0.426 3.71 3.288 5.412 6.894 4.8A15.752 15.752 0 0 0 190.2 372.8a53.968 53.968 0 0 0 5.732 -9.4c1.226 0.46 5 -1.29 5.4 -5.146a84.01 84.01 0 0 0 0.572 -10.306c0 -0.784 -0.548 1.064 1.918 -6.156 3.32 -9.726 6.756 -19.778 9.682 -29.778a140.318 140.318 0 0 0 6.582 -39.35 1.154 1.154 0 0 0 -0.016 -0.188 53 53 0 0 0 14.028 -8.652 9.452 9.452 0 0 0 3.624 -6.026 48.308 48.308 0 0 0 -0.634 -9.036c-1 -21.62 5.486 -39.462 0.016 -57.75A12.336 12.336 0 0 0 241.2 184.2c0.146 -2.046 0.148 -4.128 0.112 -6.162 -0.18 -10.176 2.458 -24.716 3.482 -37.166a86.6 86.6 0 0 0 9.722 5.546c1.514 0.8 11.468 5.99 12.4 6.504 2.384 1.308 5.072 2.784 7.648 3.936 -1.2 15.836 -2.062 15.018 -1.642 18.974a7.4 7.4 0 0 0 2.434 3.506 86.518 86.518 0 0 0 -5.872 17.692c-5.57 23.6 -8.252 61.23 -10 85.26 -0.764 10.718 -4.67 57.734 -5.02 62.734a4.36 4.36 0 0 0 1.612 4.116 0.688 0.688 0 0 0 -0.116 0.262c-2.354 11.706 -5.302 13.652 -6.694 22.8 -0.854 3.4 3.082 5.69 6.2 2.746a28.932 28.932 0 0 0 7.252 -7.524 104.81 104.81 0 0 0 5.218 -9.37 3.582 3.582 0 0 0 3.8 -2.08 38.916 38.916 0 0 0 0.348 -5.626 0.97 0.97 0 0 0 -0.08 -0.384c4.782 -3.526 6.468 -12.444 8.11 -18.126 12.228 -42.572 15.166 -47.8 32.67 -115.874 0.33 -1.284 3.112 -0.788 2.788 0.496l-5.724 22.716c0.852 7.3 1.584 14.6 2.44 21.916 2.338 19.486 8.614 60.4 14.756 78.822a5.584 5.584 0 0 0 0.524 1.768 4.414 4.414 0 0 0 0.782 0.366 1 1 0 0 0 -0.032 0.424c0.314 1.928 0.85 4.06 1.33 5.984a16.98 16.98 0 0 0 1.466 5.092 3.184 3.184 0 0 0 3 1.732c1.636 -0.158 1.926 -1.566 2.016 -2.64 4.686 1.464 17.698 5.184 22.6 5.184a9.6 9.6 0 0 0 5.848 -1.66 2.656 2.656 0 0 0 0.836 -4.056 8.326 8.326 0 0 0 -2.698 -1.872s-14.558 -8 -17.924 -9.752a8.07 8.07 0 0 0 1.174 -1.486c1.026 -1.966 0.414 -4.584 0.282 -6.702 -3.6 -50.872 5.746 -114.17 -4.346 -155.48a19.678 19.678 0 0 0 1.582 -2.448c1.334 -3.022 0.456 -6.486 -0.312 -9.544 -1.58 -6.28 -3.282 -13.034 -2.958 -17.874 7.322 7.762 18.636 12.364 26.534 5a45.236 45.236 0 0 0 9.354 -15c3.6 -9.22 6.57 -19.414 7.81 -38.084a9.56 9.56 0 0 1 5.294 -2.644 2.6 2.6 0 0 0 0.994 -4.81Zm-352.48 253.2c0 0.622 0.236 4.512 -0.442 4.816a34.156 34.156 0 0 1 -3.658 0.848l0.132 -0.948a1.01 1.01 0 0 0 -1.76 -0.758 41.898 41.898 0 0 1 -15.56 11.164c-2.276 1.086 -4.6 2.03 -5.862 0.612 -0.846 -0.96 0.212 -1.752 3.622 -6.054a90.132 90.132 0 0 0 11.266 -17.516c2.844 0.42 7.74 5.496 12.476 7.2a0.9 0.9 0 0 0 -0.222 0.638Zm232.316 9.474c0 1.368 -0.078 1.694 -1.244 1.932l-0.018 -0.164a0.96 0.96 0 0 0 -1.824 -0.4 77.986 77.986 0 0 1 -5.728 10.8 28.896 28.896 0 0 1 -3.86 4.716 11.094 11.094 0 0 1 -4.876 3.4c-0.75 0.122 -0.97 -0.124 -1.042 -0.2 -1.294 -1.448 1.83 -9.834 2.494 -11.64a49.068 49.068 0 0 0 3.55 -12.6 22.32 22.32 0 0 0 7 1.972 10.338 10.338 0 0 0 5.648 -0.838Zm46.066 -260.432a18.762 18.762 0 0 1 1.632 3.8 17.182 17.182 0 0 0 -2.954 -1.786 2.6 2.6 0 0 0 1.322 -2.014Zm2.118 -10.854a9.244 9.244 0 0 1 -7.4 4.916 1 1 0 0 0 -1.026 0.93c0 0.17 0.716 4.126 0.8 4.506a0.97 0.97 0 0 0 1.632 0.676 0.988 0.988 0 0 0 0.368 -0.984c-0.098 -0.494 -0.186 -0.988 -0.272 -1.482 0.19 0.1 0.38 0.2 0.562 0.306 0.658 0.4 1.8 1.582 1.298 2.066a4.836 4.836 0 0 1 -2.586 1 19.302 19.302 0 0 1 -9.48 -0.696 9.952 9.952 0 0 1 -4.89 -2.58c-0.07 -1.234 -1.912 -7.046 -1.322 -11.732a1 1 0 0 0 -0.896 -1.12c-2.274 -0.218 -4.216 -3.838 -4.214 -6.652 0 -0.826 0.436 -1.844 1.26 -1.744 0.876 0.166 1.234 2.268 2.282 5.28a1 1 0 0 0 1.758 0.254 22.356 22.356 0 0 0 3.728 -12.772 10.92 10.92 0 0 1 0.248 4.696c-0.038 0.23 -0.076 1.684 1.056 1.762 0.864 0.058 0.72 -1.244 2.36 -2.12a4.13 4.13 0 0 1 2.382 -0.52 0.908 0.908 0 0 0 0.068 -1.81 4.974 4.974 0 0 0 -1.144 0 17.096 17.096 0 0 0 2.494 -6.666c0.544 0.554 4.814 4.214 5.768 5.098a3.65 3.65 0 0 0 -1.984 1.2 1.146 1.146 0 0 0 -0.166 0.6 0.698 0.698 0 0 0 1.336 0.28 3.384 3.384 0 0 1 2.086 -0.538c0.366 0.112 0.4 0.234 0.72 0.326 5.982 5.858 4.65 9.05 4.95 9.932a16.668 16.668 0 0 1 -1.776 7.588Zm-6.052 18.254h-0.048a63.538 63.538 0 0 1 -8.05 -1.346 21.984 21.984 0 0 1 -6.558 -2.24c-1.144 -0.72 -1.854 -1.4 -1.858 -2.484a9.254 9.254 0 0 1 0.454 -2.108 11.922 11.922 0 0 0 5.59 2.924 21.232 21.232 0 0 0 10.376 0.774 15.78 15.78 0 0 0 0.094 4.484Zm-16.928 -10.296a11.8 11.8 0 0 0 -1.294 3.8 118.578 118.578 0 0 0 -12.506 4.378 18.088 18.088 0 0 0 9.286 -14.882c1.348 1.078 2.856 2 3.67 2.74 0.004 0.118 0.828 3.904 0.844 3.968ZM290 48.78a20.53 20.53 0 0 1 17.47 -3.856c5.438 1.4 9.122 4.434 13.4 7.948a17.758 17.758 0 0 1 5.086 5.38 11.776 11.776 0 0 1 -1.02 10.522 23.146 23.146 0 0 1 -3.128 3.906c-1.26 -7.8 -11.312 -12.91 -14.534 -17.472a1 1 0 0 0 -1.818 0.578 15.086 15.086 0 0 1 -3.272 9.4 13.382 13.382 0 0 0 -2.936 -7.528 1 1 0 0 0 -1.646 1.146 26.692 26.692 0 0 1 -2.074 13.932c-0.748 -2.4 -1.29 -4.142 -3.156 -4.492a3.358 3.358 0 0 0 -3.6 3.718c0 3.056 1.884 7.4 5.028 8.43a14.88 14.88 0 0 0 0.092 3.53 30.306 30.306 0 0 1 -8.292 -8.418A19.674 19.674 0 0 1 290 48.78Zm-12.166 49.522a7.184 7.184 0 0 0 1.6 -4.516c0.718 -1.738 -1.052 -2.352 -1.676 -1.622 0.6 -5.97 -2.156 -11.81 -3.566 -17.488a16.71 16.71 0 0 1 0.24 -11 8.4 8.4 0 0 1 6.614 -5.146c-2.568 9.036 0.864 17.486 7.956 24.04 -0.048 6.86 -3.914 13.904 -11.16 15.732ZM196.316 77.788A40.254 40.254 0 0 1 198.36 71.2a20.108 20.108 0 0 1 8.896 -7.31 3.37 3.37 0 0 0 1.244 3.36c3.168 3.342 8.754 4.268 10.88 8.2a21.498 21.498 0 0 1 1.628 6.514c0.71 3.63 -1.89 5.034 -0.636 6.2a1.26 1.26 0 0 0 1.518 0 3.304 3.304 0 0 0 0.986 -1.122c1.952 -3.134 2.568 -6.136 6.108 -7.56 3.13 -0.618 2.91 3.514 1.894 6.33a6.836 6.836 0 0 1 -3.118 3.51 3.266 3.266 0 0 1 -3.8 -0.66 0.176 0.176 0 0 0 -0.296 0.078c-0.08 0.326 -1.766 6.924 -1.828 7.164a11.256 11.256 0 0 0 -0.654 4.358 24.852 24.852 0 0 1 -2.038 1.714 11.638 11.638 0 0 1 -4.788 1.83 10.44 10.44 0 0 1 -7.316 -1.75c-0.928 -0.838 -1.346 -1.388 -0.756 -4.89a0.348 0.348 0 0 0 -0.328 -0.414 11 11 0 0 1 -8.732 -6.068 18.892 18.892 0 0 1 -0.908 -12.896ZM222.2 103.21a16.16 16.16 0 0 1 -6.424 4.57 6.166 6.166 0 0 1 -1.722 0.536c-0.128 -0.078 -1.172 -2.308 -1.276 -2.51a13.828 13.828 0 0 0 8.97 -3.304 5.188 5.188 0 0 0 0.452 0.708Zm-12.74 2.076a20.91 20.91 0 0 0 -1.968 2.048 6.758 6.758 0 0 1 -3.652 -5.286 7.46 7.46 0 0 0 0.752 -0.672 4.65 4.65 0 0 0 2.326 2.77 11.574 11.574 0 0 0 2.538 1.14ZM113.4 85.916a17.788 17.788 0 0 0 -3.462 -2.014 25.08 25.08 0 0 0 2 -2.212 6.708 6.708 0 0 1 1.462 4.226Zm-21.622 -16.186c-1.728 1.566 -4.2 0.09 -5.252 -1.916a14.658 14.658 0 0 1 -1.852 -3.906c-0.052 -2 0.63 -3.358 2.578 -2.952 3.16 0.6 5.082 5.186 6.662 7.668a1.522 1.522 0 0 0 0.85 0.82c1.014 0.3 1.616 -1.084 1.2 -2.048 -0.37 -0.848 -1.082 -1.342 -1.444 -2.054a2.47 2.47 0 0 0 0.4 -3.6 2.642 2.642 0 0 0 1.222 -3.88c1.91 -0.16 1.624 -2.932 1.624 -4.832a4.962 4.962 0 0 0 -0.462 -3.064 1.506 1.506 0 0 0 1.172 -1.966 2.956 2.956 0 0 0 3.76 -1.736c1.14 0.91 2.918 0.968 3.308 -0.436a1.902 1.902 0 0 0 3.2 -0.35 2 2 0 0 0 3.434 0.052 1.686 1.686 0 0 0 2 0.78 44.488 44.488 0 0 1 5.124 13.052c2.266 7.66 -0.464 17.228 -8.89 18.07a1.016 1.016 0 0 0 -1.014 1.256l0.506 2.412c-3.072 4.52 -9.254 3.67 -14.11 1.134 -0.076 -1.162 -2.108 -10.63 -2.4 -11.68a0.946 0.946 0 0 0 -1.616 -0.824Zm1.968 11.728a8.6 8.6 0 0 0 0.368 1.4 0.842 0.842 0 0 0 0.304 0.414 11.27 11.27 0 0 0 4.296 2.222 14.52 14.52 0 0 0 8.482 0.08c-0.124 0.38 -0.242 0.762 -0.348 1.146 -0.8 2.692 -0.508 2.452 -0.88 3.476a5.648 5.648 0 0 1 -1.454 -0.272 39.764 39.764 0 0 1 -5.6 -1.438 11.418 11.418 0 0 1 -5.414 -2.854 4.04 4.04 0 0 1 0.246 -4.174ZM27.644 26.02a4.95 4.95 0 0 1 2.322 -3.09c2.27 -1.318 1.754 -0.148 1.122 0.958a8.35 8.35 0 0 0 -0.4 0.752 13.488 13.488 0 0 0 -0.622 5.348c-0.218 3.748 -3.942 4.896 -6.784 3.824a2.32 2.32 0 0 0 1.73 -1.962 2.016 2.016 0 0 0 1.224 -1.86c1.684 -0.364 2.006 -2.178 1.408 -3.97Zm-2.4 -0.674c0.426 0.6 1.062 2.038 0.746 2.69a1.514 1.514 0 0 1 -0.312 0.226 7.232 7.232 0 0 0 -3.454 -2.98 1.724 1.724 0 0 1 3.022 0.064Zm-3.536 1.678a5.11 5.11 0 0 1 2.706 2.454c0.176 0.696 0 0.884 -0.508 0.658 -1.684 -1.02 -3.248 -0.622 -3.444 -1.692 -0.134 -0.746 0.318 -1.644 1.248 -1.42Zm-3.174 4.734c-0.4 -0.692 -0.134 -1.446 1.822 -1.214 1 0.12 3.8 0.782 3.134 1.538 -0.728 0.826 -4.128 1.118 -4.956 -0.324Zm53.744 84.574q1.062 0.15 2.128 0.29a0.972 0.972 0 0 0 0.09 -1.94c-7.422 -0.958 -15.15 -2.332 -23.63 -4.2A189.11 189.11 0 0 1 27.4 103.8a24.554 24.554 0 0 1 -10.538 -6.934 21.856 21.856 0 0 1 -3.388 -10.94 67.132 67.132 0 0 1 1.436 -21.6 202.2 202.2 0 0 1 6.632 -28.96 7.662 7.662 0 0 0 7.372 0A147.906 147.906 0 0 1 36 81.138a1 1 0 0 0 0.984 0.908c30.508 -1.046 40.868 5.754 54.318 1.704a7.112 7.112 0 0 0 0.256 2.184c0.924 2.252 3.4 3.152 5.368 3.88a38.222 38.222 0 0 0 7.738 2.118 5.18 5.18 0 0 0 1.976 0.132 1.6 1.6 0 0 0 1.122 -1.104 42.6 42.6 0 0 1 1.518 -5.36 22.854 22.854 0 0 1 4.6 3.054 0.93 0.93 0 0 0 1.062 -0.564 8.31 8.31 0 0 0 -0.644 -6.438C116 81.8 117.6 81.8 119.224 82A68.83 68.83 0 0 1 161.12 102.788c-6.922 1.166 -14.024 2 -20.586 3.428a73.73 73.73 0 0 0 -3.812 -9.504 0.93 0.93 0 0 0 -0.684 -0.386 0.704 0.704 0 0 0 -0.8 0.694c0 0.368 -0.036 0.024 1.058 2.934l-6.584 2.4a1 1 0 0 0 -0.614 1.228l1.518 5a1 1 0 0 0 1.312 0.646l6.686 -2.532c4.654 14.906 5.706 27.716 6.28 44.042 -5.484 6.312 -13.8 9.888 -26.158 11.248a74.444 74.444 0 0 1 -30.258 -2.16 47.092 47.092 0 0 1 -14.574 -7.516c-0.552 -11.846 -1.266 -23.946 -1.626 -35.978ZM138 104.788l-5.78 2.19 -0.932 -3.072 5.696 -2.076q0.526 1.474 1.016 2.958Zm-15.056 239.088c4.2 2.29 9.264 3.832 8.83 4.866 -0.05 0.116 -0.352 0.35 -1.184 0.49a17.866 17.866 0 0 1 -5.42 0.2 79.13 79.13 0 0 1 -18.062 -3.142 1.046 1.046 0 0 0 -1.312 0.95c-0.05 0.668 -0.068 1.344 -0.054 2.016 0 0 -3.726 0 -3.9 0.018a4.558 4.558 0 0 1 -1.142 -0.022 44.436 44.436 0 0 1 -1.55 -10.846c3.338 0.122 -3.568 0.178 15.63 -0.292a38.646 38.646 0 0 0 8.164 5.762Zm21.978 -176.306c-0.44 1.354 -1.92 2.254 -3.226 3.052a65.484 65.484 0 0 1 -61 4.754c-3.046 -1.356 -5.898 -3.086 -6.136 -6.536 -0.276 -3.326 -0.144 -5.172 -0.55 -14.21 9.722 7.458 22.556 9.834 34.71 9.834a78.286 78.286 0 0 0 24.026 -3.498 29.224 29.224 0 0 0 12.236 -7.51c0.108 3.694 0.086 2.298 0.086 8.288a18.6 18.6 0 0 1 -0.146 5.826Zm12.552 -36.788a71.826 71.826 0 0 0 10.056 -1.242 21.112 21.112 0 0 0 0.038 7.438c-4.498 -2.542 -5.242 -3.21 -10.094 -6.196Zm-12.638 140.26c-9.656 -11.568 -5.4 -15.054 -5.47 -16.29 5.648 -1.778 11.666 0.77 16.24 4.232a126.4 126.4 0 0 0 16.3 11.032 0.652 0.652 0 0 0 0.064 0.136c7.7 12.574 7.47 16.382 12.578 26.058a24.61 24.61 0 0 0 5.338 7.48 9.386 9.386 0 0 1 -2.664 8.242c-17.14 -14.782 -30.172 -26.47 -42.386 -40.89Zm46.326 31.094c-10.2 -12.482 -9.318 -20.638 -16.25 -30.684a59.83 59.83 0 0 0 17.038 4.71c0.098 7.968 0.164 16.862 -0.128 25.974Zm-2.892 11.386a10.75 10.75 0 0 0 3.334 -5.952c-0.218 4.504 -0.556 9.214 -0.952 13.646a38.34 38.34 0 0 0 -2.382 -7.694Zm-2.818 43.488a6.62 6.62 0 0 0 5.784 2.93 10.526 10.526 0 0 1 -3.174 3.264 4 4 0 0 1 -2.982 0.2 3.724 3.724 0 0 1 -2.022 -1.4c0.108 -0.23 1.812 -3.918 2.394 -4.994Zm14.16 -1.32c-0.152 2.972 -0.906 4.834 -2.25 5.552a10.2 10.2 0 0 0 0 -1.106 0.702 0.702 0 0 0 -0.304 -0.872 1.038 1.038 0 0 0 -1.664 0.524 49.49 49.49 0 0 1 -7.168 12.476c-1.4 1.714 -6.31 7.128 -10.758 4.926 -2.296 -1.148 -1.048 -3.582 0.26 -5.984l4.16 -7.672a6.102 6.102 0 0 0 4.516 1.98c3.73 0 5.8 -3.186 7.538 -6.41a1.07 1.07 0 0 0 -0.268 -1.214 0.932 0.932 0 0 0 -0.856 -0.124 5.252 5.252 0 0 1 -6.418 -2.506c0.426 -0.8 0.85 -1.614 1.262 -2.426a8.134 8.134 0 0 0 1.2 2.026c2.85 2.688 7.894 2.1 10.924 -2.734 -0.064 1.19 -0.114 2.38 -0.174 3.564Zm0.68 -9.514a17.312 17.312 0 0 1 -3.14 6.286 5.548 5.548 0 0 1 -5.774 1.84c-2.49 -0.892 -2.59 -4.048 -2.24 -6.682a340.61 340.61 0 0 0 4.274 -71.298 54.784 54.784 0 0 0 24.702 -3.066c-0.33 24.01 -9.42 47.842 -17.822 72.92Zm37.824 -159.312a22.838 22.838 0 0 1 -7.49 6 43.8 43.8 0 0 1 -17.814 4.918 67.122 67.122 0 0 1 -37.966 -9.9c-1.454 -0.868 -2.864 -1.836 -4.366 -2.772a22.21 22.21 0 0 1 -4.052 -3.162c-0.8 -0.978 -0.244 -2.6 0.248 -4.04s1.63 -5.588 2.072 -7.014a15.434 15.434 0 0 0 7.58 5.732A141.706 141.706 0 0 0 192.944 182c16.082 4.4 33.828 4.982 46.308 -5.762v5.454a8.73 8.73 0 0 1 -1.136 5.172Zm36.588 -31.93c-9.172 -5.412 -20.228 -9.842 -29.978 -16.186a1 1 0 0 0 -0.638 -0.418q-1.636 -1.082 -3.228 -2.218a0.918 0.918 0 0 0 -1.144 0.258 0.854 0.854 0 0 0 0.18 1.042q1.426 1.086 2.898 2.114c-0.852 11.412 -2.928 22.568 -3.456 34.072a37.952 37.952 0 0 1 -25.982 9.728c-11.522 -0.044 -22.974 -3.666 -33.104 -7.016 -4.748 -1.566 -9.466 -3.462 -10.812 -7.786a62.252 62.252 0 0 0 2.32 -17.6c-0.154 -7.584 -4.14 -15.322 -1.924 -23.318 1.97 -7.104 7.028 -12.886 11.82 -18.482a0.846 0.846 0 0 0 -0.536 -1.356 0.708 0.708 0 0 0 -0.642 0.186c-5.182 5.132 -10.944 12.92 -12.6 19.8 -3.6 0.434 -7.388 1 -11.1 1.216 -7.314 0.474 -6.66 -0.058 -11.576 0.2a120.1 120.1 0 0 0 -4.124 -21.2c7.256 -0.874 33.67 -5.67 42.37 -7.65a2.488 2.488 0 0 0 0.47 2.704c2.04 2.272 8.308 2.446 10.358 2.252A24.684 24.684 0 0 0 202 103.122a8.4 8.4 0 0 0 5.456 6.282 0.914 0.914 0 0 0 0.298 0.05c0.968 0 0.7 -0.928 3.2 -3.35 0.4 0.974 0.39 0.746 1.268 2.562 0.728 1.512 0.846 2 3.51 1.15a17.8 17.8 0 0 0 7.898 -5.32 4.87 4.87 0 0 0 5.924 -0.57 2.754 2.754 0 0 0 2.746 2.852 3.614 3.614 0 0 0 3.32 -3.2 7.778 7.778 0 0 0 7.536 2.918c11.2 5.6 18.85 12.728 28 21.616a32.782 32.782 0 0 0 4.29 4.254c0.02 7.518 -0.22 15.064 -0.742 22.568Zm68.718 186.666c0.618 0.752 19.89 10.646 20.474 11.6a0.814 0.814 0 0 1 0.12 0.8c-0.278 0.65 -1.538 1.2 -2.658 1.47 -4.09 0.918 -8.648 -0.492 -12.772 -1.546 -4.03 -1.032 -8.672 -2.318 -13.05 -3.654a1.018 1.018 0 0 0 -1.28 0.67c-0.07 0.232 -0.11 2.328 -0.454 2.354a1.562 1.562 0 0 1 -0.904 -0.668 86.866 86.866 0 0 1 -2.578 -10.15c4.296 0.904 9.368 1.468 13.102 -0.876Zm-3.052 -180c1.418 5.214 2.188 7.64 1.8 10.728a8.832 8.832 0 0 1 -2.438 4.058 45.556 45.556 0 0 1 -51.47 8.742 50.046 50.046 0 0 1 -11.436 -7.278 8.584 8.584 0 0 1 -1.6 -1.626 5 5 0 0 1 -0.272 -3.21q0.478 -3.89 0.86 -7.8c7.282 5.958 17.652 9.55 29.454 10.164a47.6 47.6 0 0 0 27.764 -6.504 18.96 18.96 0 0 0 7.338 -7.288ZM382 99.654c-0.584 3.69 -0.894 25.958 -11.156 43.666a22.852 22.852 0 0 1 -8.118 9.264c-7.536 3.912 -16.542 -1.768 -22.2 -8.038 1.346 -6.74 5.028 -12.156 3.266 -21.628a38.53 38.53 0 0 0 -10.228 -19.164c-0.66 -0.676 -1.712 0.332 -1.022 1.108a42.566 42.566 0 0 1 9.142 16.75c2.968 12 -3.688 17.31 -3.422 28.228a64.49 64.49 0 0 0 1.422 8.868c-2.814 7.5 -11.774 11.326 -18.906 13.224a52.052 52.052 0 0 1 -44.746 -8.772 323.086 323.086 0 0 0 1.29 -35.34c2.052 -0.818 2.134 -0.8 2.652 -1.254 0.71 -0.784 -0.38 -1.95 -1.584 -1.134a52.85 52.85 0 0 1 -5.022 1.892c-0.512 0.172 -3.04 -3.502 -15.646 -13.932 12.456 -7.578 11.494 -7.89 36.358 -17.306a3.838 3.838 0 0 0 1.068 1.828 16.108 16.108 0 0 0 7.624 3.364 60.702 60.702 0 0 0 9.6 1.616 1.752 1.752 0 0 0 1.382 -0.466c0.718 -0.836 -0.242 -1.842 0.158 -5.518a11.356 11.356 0 0 1 4.498 3.524 0.888 0.888 0 0 0 1.55 -0.6 16.884 16.884 0 0 0 -2.216 -7.034c18.142 0.514 23.326 7.6 32 24.548 2.352 4.6 4.388 8.936 6.438 13.982a0.92 0.92 0 0 0 1.722 0.096c14.09 -30.478 16.2 -35.484 16.2 -35.484 0.4 -0.09 -0.4 0.128 6.648 2.564a7.544 7.544 0 0 1 1.308 0.428 2.268 2.268 0 0 1 -0.06 0.72Zm6.85 -5.376a11.884 11.884 0 0 0 -6.122 2.978c-2.8 -0.918 -5.6 -1.944 -8.292 -3.042a7.092 7.092 0 0 1 3.068 -7.77c0.538 -0.162 0.92 -0.236 0.286 0.708a6.892 6.892 0 0 0 -1.048 3.6 1 1 0 0 0 1.86 0.492 8.32 8.32 0 0 1 6.94 -4.248c0.85 -0.034 0.128 0.54 -0.314 0.712a7.116 7.116 0 0 0 -3.118 2.178 1 1 0 0 0 1.504 1.306 5.8 5.8 0 0 1 4.688 -1.826c0.434 0.106 0.614 0.35 0.614 0.456s-0.228 0.368 -0.9 0.524a9.078 9.078 0 0 0 -4.172 2.178 1 1 0 0 0 1.176 1.586c1.334 -0.698 4.38 -1.91 4.466 -0.4 -0.004 0.09 0.016 0.442 -0.646 0.568Z" fill="#000000" stroke-width="1"></path></g></svg>